<?xml version="1.0" encoding="utf-8"?>
<!-- Generator: Adobe Illustrator 19.1.0, SVG Export Plug-In . SVG Version: 6.00 Build 0)  -->
<svg version="1.1" id="Layer_1" xmlns="http://www.w3.org/2000/svg" xmlns:xlink="http://www.w3.org/1999/xlink" x="0px" y="0px"
	 viewBox="0 0 1014.7 618.2" style="enable-background:new 0 0 1014.7 618.2;" xml:space="preserve">
<style type="text/css">
	.st0{fill:#E40009;}
	.st1{fill:#FFFFFF;}
</style>
<g>
	<path class="st0" d="M424.2,1.4c3.1-0.6,6.3-2.1,9.4-1C430.6,0.8,427.2,2.9,424.2,1.4z"/>
	<path class="st0" d="M716.5,1.4c1.6-0.6,2.2-0.1,1.6,1.5C716.5,3.5,715.9,3,716.5,1.4z"/>
	<g>
		<path class="st0" d="M709.5,5.3c2.6,0.4,3-2.6,4.7-3.8c0.3,0.7,0.8,2.1,1.1,2.8c4.9,0.7,11.5,0.4,13.9,5.6c0-0.8,0-2.3,0-3.1
			c1,0.5,2,1.1,3.1,1.6c2.3-0.9,4.7-0.7,6.7,0.8c4.7,1,9.6,2.1,14.4,1.3c1.9,0,4.6-1.2,5.4,1.3c-5,0.9-10.2,1.5-14.9,3.5
			c-0.3,0.4-0.8,1.3-1,1.7c1,0.6,2,1.1,3,1.7c1,1.7,2,3.4,3,5.1c0.1-0.4,0.5-1.3,0.6-1.8c3,0.1,6,0.1,8.9-0.8c1.2,3.4,4-0.2,5.8-1.2
			c0.3,1.6-1.2,1.9-2.3,2.4c-0.5,0.8-1.1,1.6-1.6,2.4c-1.5,0.2-3,0.4-4.4,0.6c0,0.6,0,1.9,0,2.6c3.5-1.2,7-2.6,10.6-3.7
			c-0.3,1.6-2.1,1.8-3.3,2.4c-3.1,1.2-6.3,2.5-9.4,3.6c0.3,0.4,0.9,1.3,1.2,1.7c-0.5,1.2-0.9,2.5-1.4,3.7c2.4-0.9,4.5-2.3,6.9-3.3
			c-0.7-0.4-2.1-1.1-2.8-1.5c2.2-3,6.5-1.9,9.8-2.4c0,0.8,0,2.3,0,3.1c-2-0.5-3.9-0.1-5.4,1.2c1.6,0.2,3.1,0.3,4.7,0.4
			c-0.7,0.8-1.3,1.5-1.9,2.3c0.4,0.4,1.1,1.2,1.5,1.5c-1.9,0-3.8-0.4-5.5-1c0.5,1,1.1,2,1.6,3c2.8-0.4,5.6,0.1,8.4,0.3
			c-0.3,1.2-0.6,2.3-1,3.5c1.8,0.3,4.5-0.6,5.7,1.2c-0.5,1.2-1.2,2.4-1.8,3.5c-1.8,0.1-3.5,0-5.1-0.9c-2.7,0.2-5.4,0.8-8.2,0.9
			c0.2,0.5,0.5,1.4,0.7,1.8c3.4,0.9,6.9,1.9,10.3,2.8c-0.2,0.5-0.6,1.5-0.9,1.9c3.8,0.6,1.2-3.4,0.8-5.4c1.7,1.1,3.5,2,5.5,2.5
			c-0.2,0.4-0.7,1.1-0.9,1.5c1.6,2.2,4,2.5,6.3,1.3c0.8,1,1.7,1.9,2.5,2.9c-1.5,0-3,0-4.5,0c1.6,0.8,5.2,4.3,1.3,4.3
			c-92.4,0.1-184.8,0-277.2,0.1c-2.1-0.1-4.4,0.5-6.2-0.9c3-1.2,6.2-1.8,9.4-2.5c0.5,0.3,1.5,0.7,2,1c1.3-0.7,2.5-1.5,3.8-2.2
			c-1.6-1.8-3.5-3.6-3.6-6.2c0.7-0.2,2-0.6,2.7-0.8c-0.7-1.2-1.4-2.4-2.1-3.7c-0.6,0-1.9,0.1-2.5,0.2c0.2,1.3,0.4,2.5,0.6,3.8
			c-2,0.1-2.7-2-4.2-2.8c-2.1,0.9-4.2,1.9-6.1,0.1c-0.9,1.2-2.1,2.8-3.8,1.8c0.2-0.5,0.7-1.4,0.9-1.8c-0.4-0.8-0.7-1.5-1.1-2.3
			c2.7-0.7,5.5-1.9,8.2-0.4c0.1-0.4,0.3-1.1,0.5-1.4c4.9,1.4,9.7-0.8,14.6-0.5c0-0.5-0.1-1.5-0.2-2c1.5,0,3,0,4.5,0
			c-1.1-3.5-5.3-2.1-8-2.1c0.2-0.4,0.7-1.2,1-1.6c4.2-0.5,8.4-0.8,12.5-1.6c6.1-1.8,12.8-3.3,19.1-1.5c0.2-0.5,0.6-1.5,0.7-2
			c2.7,0.8,5.6,1.3,8.5,1.2c4.8-0.2,9.6,0.5,14.4,0.4c0.6,1,1.2,2,1.8,2.9c-0.8,0-2.4,0-3.2,0c1.6,2.7,4.7,3.5,7.1,1.4
			c2.7,0.1,5.3-0.5,7.9-1.3c-0.3-0.3-0.8-0.8-1-1.1c-0.5,0.3-1.4,0.8-1.9,1.1c-0.6-1.2-1.3-2.3-1.9-3.5c4.7-1.1,9.4-2.4,14.2-2.2
			c-1.3,1-2.6,2.1-3.9,3.1c5.6-1.2,11.9-1.1,16.7-4.5c0.6,1.2,1.3,2.3,1.9,3.5c2.9-1.7,5.7-3.6,8.3-5.8c-0.8-0.2-2.4-0.5-3.2-0.6
			c0.1-0.4,0.3-1.2,0.3-1.6c0.9,0.4,1.9,0.8,2.8,1.2c2.3-0.7,4.7-0.9,7-1.6c1.1-2.7,4.5-2.5,6.8-3.4c4-1.5,8.7-0.7,12.3-3.1
			c3.6,1.3,6.8-1.2,9.8-2.9c-1-0.1-3.1-0.3-4.1-0.3c1.8-1.8,4.7-1.4,7.1-2.1c6.3-0.5,12.6-1.6,18.9-2.2c1.8-0.1,3.4-0.9,5.1-1.5
			c-0.3-0.6-1-1.8-1.3-2.4c2.3-0.7,4.7-1.2,7.1-1.2c0.4,1.1,0.7,2.1,1.1,3.1C693.3,6.7,701.4,5.5,709.5,5.3z M565.7,37.3
			c-1.1,1.4,1.2,3,2.5,2.5C568.8,38.6,567.1,36.2,565.7,37.3z"/>
	</g>
	<path class="st0" d="M412.8,4.2c1.2-0.9,2-0.7,2.2,0.6C413.8,5.7,413,5.5,412.8,4.2z"/>
	<g>
		<path class="st0" d="M392,9.3c4-1.1,7.8-3.2,12-2.3c-1.2,1.6-3.1,2.1-4.8,2.8c0.9-0.1,2.7-0.2,3.5-0.3c0.5,1,1.1,1.9,1.6,2.9
			c2.7-0.7,5.4-1.3,8.2-1.4c-1.9,2.2-5.2,1.9-7.4,3.7c1,0,3.2,0,4.2,0c-1.6,2.2-4.6,2.3-6.9,3.1c4.4-0.5,8.7-1.2,13.1-1.7
			c-3.3,2.3-7.3,3.2-11,4.7c1.3,0.4,2.5,0.8,3.8,1.2c-1,0.8-2,1.4-3,2c4.5-1,8.9-2.4,13.3-3.6c-2.2-0.1-4.4,0.3-6.6,0.7
			c1.7-1.9,4.6-1.9,6.2-4c-0.5-0.5-1.5-1.6-2-2.1c0.7,0,2.1,0.1,2.8,0.1c0,0.7-0.2,2.1-0.2,2.8c4.7-0.2,8.6-3,13.3-3.4
			c-0.1,0.5-0.2,1.5-0.3,2c1-0.1,2.9-0.3,3.9-0.4c-2.7,1.9-6.1,2.3-9.3,3c0.5,0.5,1.5,1.6,2,2.1c-1.5,0.3-3.7-0.6-4.8,1
			c-6.3,0.5-12.2,2.6-18.2,4.1c0.5,0.4,1.5,1.1,2,1.5c-2.5,1.2-5.2,1.7-7.8,2.6c1.4-0.1,2.8-0.2,4.1-0.3c-1.1,3.3-5.7,2.1-8.4,3.5
			c2.7,0.8,6.3-2.1,8.2,0.4c-0.5,0.4-1.4,1.3-1.8,1.7c1.2,0,2.4,0,3.6,0c-0.4-0.5-1.3-1.6-1.7-2.1c3.1-1,6.1,2,9.2-0.1
			c-0.6-0.3-1.7-1-2.3-1.3c2-0.8,4-1.6,6-2.2c-0.1,1.8-2.1,2-3.3,2.8c3.1,0.9,6.4,0.8,9.5,0.1c-2,1.3-4.2,2.4-6.4,3.3
			c0-0.6-0.1-1.9-0.2-2.5c-1.5,0.4-3,0.9-4.4,1.3c0.1,0.4,0.2,1.3,0.3,1.8c-2.7,1.9-6.1,4.9-9.3,2.1c-0.1,0.5-0.2,1.5-0.2,2
			c3-0.3,6-1.3,9-1.2c-0.2,0.6-0.7,1.8-0.9,2.5c2.6,0,2.1-3.1,4.2-4c1.9-1.1,4-1.5,6.1-2c0.1,1.6,0.6,3.1,1.4,4.5
			c-1.6,0.6-3.2,1.2-4.8,1.8c0.8,0.1,2.4,0.4,3.1,0.6c-0.5,0.3-1.4,0.8-1.9,1.1c0.8,1.5,1.6,3,2.4,4.4c2.9-0.7,5.9-1,8.9-0.8
			c-0.8,1.9-2.8,2.7-4.5,3.7c2.4,1,5,2,7.3,0.2c0.1,0.6,0.3,1.8,0.4,2.3c0.5-0.2,1.6-0.7,2.1-0.9c2.9,1.7,5.8,3.4,9.2,4
			c-0.1,1.6-0.2,3.2,0.1,4.8c-3.6-0.9-4.2,3.2-5.9,5.4c3.5,0.8,5.9,4.4,9.7,3.8c3.4-0.4,6.9,1,10.1-0.4c-1.1-0.6-2.2-1.3-3.3-1.9
			c0.5-0.5,1.4-1.3,1.8-1.8c23.8-0.8,47.7-0.1,71.5-0.3c106.7,0,213.3,0,320,0c5.4,0,10.8-0.1,16.3,0.3c-2.4,2.1-5.6,2.7-8.2,4.2
			c1.5,0.9,4.5,0.5,4.6,2.7c-1.4,2.4-5.1,2.5-6,5.5c2.5-0.1,5.1-0.5,7.6-1c1.1,0.8,2.3,1.6,3.4,2.4c-0.7,0.8-1.7,2.7,0.2,2.6
			c3.6-2.1,7.9-2.2,11.5-4.3c2.1-1.1,4.7-0.7,6.9-1.5c0.1-1.6,0.7-2.9,1.9-3.8c0.9,2.3,1.6,4.8,2.2,7.2c1.9-1.4,3.8-3.1,6.4-2.2
			c-1.7,1.5-3.8,2.4-5.8,3.4c2.3,2.4,6,1.4,8.8,0.6c0-0.8-0.1-2.6-0.2-3.4c0.6,0.6,1.8,1.7,2.4,2.3c1.2-1.3,1.8-4,3.9-4
			c1.5,0.6,3.1,1,4.8,1.2c0.7,0.8,1.5,1.5,2.3,2.3c-0.1,0.6-0.3,1.9-0.3,2.5c-1.2,0.3-2.4,0.6-3.6,0.9c0.6,0.7,1.3,1.4,1.9,2.2
			c2.3-0.2,4.5-0.4,6.8-0.8c-0.2-1.6-0.3-3.3-0.5-4.9c1.5,1.5,6,3.4,5.5-0.5c1,0.3,2.1,0.6,3.2,1c4.6-0.7,8.3-3.8,12.8-4.8
			c4.3-2.4,9.6-2,13.5-5.4c0.8,0.2,1.7,0.4,2.6,0.6c1.4-0.9,2.8-1.9,4.3-2.8c0.9,0.3,1.7,0.5,2.6,0.8c1.2-0.8,2.4-1.5,3.6-2.2
			c1.1,2.7-2.8,3-4.3,4.2c3.3-0.9,6.6-1.8,9.9-2.9c1.2,0.7,2.8,0.9,3.4,2.3c-0.7,0-2.2,0-3,0c-0.8,0.7-1.7,1.3-2.5,2
			c-4.6-0.3-8,3.6-12.6,3.5c-1.3,0.9-2.8,1.7-3.6,3.1c3.6-0.3,6.8-2.2,10.4-2.9c-1,1.5-2.9,1.8-4.4,2.5c3.1,1.2,6.6,1.5,9.3-0.8
			c-2.1-0.1-3.5-1.7-2-3.6c1.4-1,2.4,0.9,3.5,1.5c2.5,1,5.1,0.9,7.8,0.7c-1.1,0.6-2.3,1.1-3.4,1.8c2.1-0.1,4.2-0.5,6.4-0.6
			c-0.9,0.7-1.9,1.2-2.8,1.7c0.1,0.8,0.3,1.7,0.4,2.5c-0.7,0.2-2.2,0.7-2.9,0.9c1,0.1,2,0.2,3,0.2c0.4,1.2,1.1,2.4,2,3.4
			c-0.2-1.4-0.5-2.8-0.8-4.1c1.4-0.5,2.8-1.1,4.1-0.1c-0.3,0.4-0.8,1.3-1.1,1.8c2.7,1.7,5.7,2.8,8.9,3c-2.1,3.7-7,2.3-10.5,2.7
			c0.8-1.2,1.6-2.3,2.4-3.5c-3.3,0.3-2.5,3.9-3.6,6.1c-2.3-0.6-4.6,0-6.9,0.2c1.1-3.2,4.7-3,6.9-5c-1.9,0-3.9,0.2-5.8,0.3
			c0.3-1.2,0.7-2.3,1-3.5c-1.9-0.6-3.7-1.2-5.6-1.7c-0.7,0.9-1.4,1.8-2,2.8c0.9,0.8,2.1,1.1,3.2,1.7c-0.8,0.2-2.3,0.5-3.1,0.7
			c0.7,0.6,1.4,1.1,2.2,1.7c0,0.7,0.1,2.1,0.2,2.8c1-0.5,2-1,3-1.5c-0.1,0.8-0.4,2.4-0.6,3.2c-5,1.7-9.8,3.8-14.9,5
			c-0.2,0.3-0.7,0.9-0.9,1.2c-4.2,2-9,1-13.1,2.8c1-0.1,2.9-0.3,3.8-0.4c-0.5,2.8-3.5,2.7-5.6,3.2c0.6,0.7,1.2,1.4,1.8,2.1
			c0.8-0.8,1.5-1.6,2.3-2.4c4.5-0.2,8.4-2.6,12.5-4.4c2.7,0,5.3-0.7,7.9-1.4c0.3,0.3,0.8,1,1,1.4c0.7-0.2,1.5-0.4,2.3-0.6
			c0.6,0.5,1.3,1.1,1.9,1.6c0.3-1,0.6-1.9,0.9-2.9c3.2,0.7,5.5-1.7,8.3-2.8c0.9,0.6,1.8,1.2,2.7,1.8c0.6-0.3,1.8-0.9,2.4-1.2
			c-0.1,0.5-0.2,1.6-0.3,2.1c-3.2,0.6-6.3,2.3-9.6,2c-4.5,3.3-10.4,4-14.6,7.9c-0.9-0.9-1.7-1.8-2.5-2.7c-1,0.4-2,0.8-2.9,1.3
			c0.8,0.8,1.3,1.8,1.6,2.9c-4.4-0.4-8.2,2-12,3.7c4.5,0.5,8.2-2.8,12.6-2.8c1.1-0.2,2.1-0.4,3.2-0.6c5.1-4.1,11.5-5.3,17.4-7.6
			c-0.2,0.5-0.7,1.6-0.9,2.2c1.8-0.3,3.7-0.6,5.5-1c0,1.4-0.1,2.8,0.5,4.1c0.3-0.5,0.8-1.6,1.1-2.1c0.8,0.5,1.5,1.1,2.1,1.8
			c-4.4,1.6-8.3,4.1-12.7,5.8c-1.7,0.8-3.9,1.2-4.9,3c1.5-0.1,3.7,0.7,4.2-1.4c7.6-1.6,14.7-5.4,22.6-6.4c-0.6,0.4-1.7,1.3-2.3,1.8
			c0.3,0.4,0.9,1.2,1.2,1.6c-2.7,3.6-7.4,4.2-11,6.4c-2.4,1.6-5.6,1.3-7.7,3.4c-1.3,1.4-3.2,1.4-4.9,1.7c0.3,0.7,0.8,1.4,1.3,2.1
			c0.5-0.4,1.6-1.2,2.1-1.6c5.9-2,11.7-4.6,17.8-6c2-0.8,2.5,1.8,3.6,2.8c-5.6,4.3-12.5,5.9-18.6,9.1c-1.1,0.6-2.4,0.4-3.5,0.3
			c-1,1.2-1.5,3.2-3.5,3c0.2-0.6,0.5-1.8,0.7-2.4c-2.8,1.9-6,3-9.1,4.3c-0.4-0.3-1.2-0.8-1.6-1.1c0,0.6,0.1,1.7,0.1,2.3
			c2.3-0.8,4.5-1.7,6.7-2.6c1.3,0.4,2.6,0.7,3.9,1c2.7-2.1,5.6-3.9,9.1-4.3c5.4-0.8,10.4-5.7,16-3.3c-2.2,0.8-2.6,3.1-4,4.7
			c-4.7,3.1-10.2,4.9-15.5,6.7c-1.5,0.5-2.4,1.9-3.4,2.9c-1.6-2-4.5-1.1-3.5,1.7c-0.5-0.3-1.5-0.8-2-1.1c-1.3,0.5-4.2-1.3-1.9-2.5
			c-0.8,0.5-1.7,1-2.5,1.4l1,0.2c-0.1,0.5-0.3,1.6-0.3,2.1c-2.5-1.9-5.3-1.6-7.9-0.1c0.3,1.2,0.7,2.4,1.1,3.6
			c1.4-0.2,2.7-0.4,4.1-0.6c0.2,1.3,0.6,2.6,1.3,3.8c-3.7-1-7.5-0.4-11.1,0.4c0,0.3,0,0.9,0,1.2c2-0.6,4-1.1,6-1.6
			c0.1,1.1,0.3,2.3,0.5,3.4c-0.2,0.6-0.6,1.7-0.8,2.3c1.7-0.4,3.5-0.8,5.2-1.2c0.2,1.1,0.3,2.2,0.5,3.2c-0.4,0.1-1.2,0.3-1.6,0.4
			c2.7,2.4,6,3.6,9.6,3.7c-2.2,4.2-7.2,1-10.5,3.3c0.2,1,0.4,2.1,0.6,3.1c-0.7,0.1-2.1,0.3-2.8,0.4c-0.9,0.8-1.8,1.6-2.8,2.4
			c0.1-1.5,0.3-3,0.5-4.4c-2.4,0.8-4.5,2.3-6.9,2.8c0.3,0.3,0.9,0.8,1.2,1.1c1-0.3,2.1-0.6,3.1-0.8c-0.5,2.3-1.5,4.4-2.9,6.2
			c2.2-0.4,4.1-1.3,5.8-2.7c1.6,0,3.1-0.2,2.9-2.2c1.8-0.4,3.6-0.7,5.5-0.9c-1.2,1.4-3.8,2.2-2.7,4.6c-0.7,0.1-2,0.5-2.7,0.6
			c-1.5-0.7-3-1.3-4.6-0.5c0,0.6-0.1,1.9-0.1,2.5c-5,0.8-9.2,3.6-13.6,6c-1.5,1-2.5-1-3.5-1.8l0,1.4c-0.5-0.2-1.6-0.5-2.1-0.7
			c2.6,1.8-0.6,3.8-2.2,4.7c1.8-0.5,3.4-1.3,4.9-2.3c0.5,0.3,1.6,0.8,2.1,1.1c1.8-1.2,3.5-2.4,5.2-3.8c2.1-0.6,4.4-0.9,6-2.6
			c0.4,0.1,1.3,0.3,1.8,0.4c2.2-1,5.5-1,6.5-3.6c1-0.1,2-0.2,3-0.3c1.8,1.4,4.2,1.6,6,3c-0.8,1.6-3.1,1.2-4.5,1.8
			c-0.1-0.4-0.2-1.1-0.3-1.4c-0.4,0.1-1.2,0.4-1.6,0.5c-1.1-0.2-2.2-0.4-3.2-0.7c0.9,0.4,1.7,0.8,2.6,1.2c0.2,0.6,0.6,1.8,0.8,2.4
			c1.1,0,3.1-2.1,3.3,0.1c-5,2.6-10.2,5.2-15.4,7.5c-0.6,0.8-1.2,1.7-1.7,2.5c1.9,0,3.7,0,5.6,0c0-0.8,0-2.2,0.1-3
			c1.2,0.1,2.4,0.2,3.7,0.3c0.6-0.5,1.7-1.4,2.3-1.8c0.6,1.1,1.1,2.3,1.3,3.5c-3.4,0-6.7,1-9.6,2.7c2.1,0.2,4.3-0.2,6.3-0.8
			c-0.4,0.4-1.3,1.2-1.7,1.6c0.2,2.4-1.6,3.4-3.5,4.3c2,0,4.7-0.6,4.5,2.3c0.3,0,0.9-0.1,1.2-0.2c-0.3-1-0.6-2-0.8-3
			c0.7-0.2,2-0.7,2.6-0.9c-0.2,4.8,5.9,5,9.3,5.3c-2.3,4.2-7.2,1.8-10.9,3c0.8-1.3,1.5-2.7,2.2-4.1c-1,0.7-2,1.4-3,2.1
			c-2-0.3-4.1-0.3-6.1-0.1c0.2-1.2,0.5-2.4,0.7-3.6c-1.8-0.4-3.5-0.8-5.2-1.2c-0.8,0.8-1.5,1.6-2.3,2.4c0.9,0.6,1.9,1.2,2.8,1.8
			c-0.5,0.2-1.5,0.7-2,0.9c1.6,0.8,2.3,2.3,2.5,4c0.6,0.3,1.8,1,2.4,1.3c-4.4,1.4-8.5,3.4-12.8,5c-1.1-0.1-2.1-0.2-3.2-0.3
			c-0.2,0.6-0.5,1.9-0.7,2.6c-1.1-0.3-2.2-0.5-3.2-0.8c-1.3,0.4-2.6,0.7-3.9,1.2c-1.5,0.4-3,0.8-4.4,1.3c0.1,0.4,0.4,1.3,0.5,1.7
			c0.4,1.8,1.5,3.4,2.4,5.1c1.2-0.9,0.9-2.3,0.8-3.6c1.1-0.1,2.3-0.2,3.4-0.2l0-0.8c2.7-0.7,4.6-3.1,7.3-3.9c-0.5,0.8-1.4,2.3-1.8,3
			c2.8-0.5,5.2-2.6,8.1-2.4c-0.7,1-1.3,1.9-2,2.9c0.6-0.1,1.3-0.1,2-0.2c1.7-1.8,4.3-1.5,6.4-2.7c1.8-0.9,3.7-1.5,5.7-1.9
			c-0.2,2.5-3.2,2.6-5,3.6c-4.3,1.3-8.2,3.3-11.6,6.3c-0.6-1-1.1-2.1-1.7-3.1c-0.6,0.2-1.9,0.5-2.6,0.7c0,0.7,0,2,0,2.7
			c-2.6,0.8-5.2,1.6-7.6,2.8c1.2,2.2,3.4,0.4,5.1,0c1.8-1.1,4.8,1.2,5.3-1.8c1,0.3,1.9,0.7,2.9,1c0.4-0.9,0.9-1.7,1.4-2.6
			c4.5-2.9,9.8-3.9,14.7-5.8c-0.3,0.6-0.9,1.7-1.2,2.2c4-0.2,7.6-2.2,11.6-2.6c0.2,0.4,0.7,1.3,0.9,1.8c-2.3,0.3-4.7-0.1-7,0.5
			c0.1,0.7,0.3,2,0.4,2.6c1.1-0.4,2.1-0.9,3.3-1.3c-0.1,0.4-0.2,1.3-0.2,1.8c-6.2,3.1-12.4,6.2-18.9,8.5c0.5,0.3,1.5,0.9,2,1.2
			c-1.9,1.2-3.6,3.1-5.9,3.5c-4.8,0-8.3,3.6-12.3,5.6c2.1,0.5,4.3,1,6.4,1.7c-0.9,1.5-2.5,1.4-4,1.1c-0.5,0.2-1.6,0.6-2.2,0.8
			c0.8,0.7,1.7,1.3,2.5,2c-1.7,1.4-3.5,2.6-5.4,3.7c-1.1,0.7-2.2,1.4-3.3,2.2c-0.8-2.3-1.8,0.2-2.7,1c-0.8,1.4-2.5,1.4-3.9,1.9
			c-0.8,1.4-1.5,2.8-2.2,4.2c1.4-0.6,2.7-1.1,4.1-1.7c0.3,0.5,0.9,1.5,1.2,2c-2.3,0.6-2.9,2.8-3.7,4.6c2.4,0.2,4.8,0.3,7.2,0.1
			c0,0.5-0.1,1.4-0.2,1.9c0,0.1,0,0.3,0,0.4v0.2c0.6,14.7,0.1,29.5,0.3,44.3c0,45.7,0,91.3,0,137c-0.1,28.7,0.3,57.5-0.2,86.2
			c-3.8,3.3-7.8,6.4-12,9c0.1,0.4,0.2,1.3,0.3,1.7c-0.6,0.3-1.7,0.9-2.3,1.2c-0.6-0.3-1.3-0.6-2-0.8c0.5,3-2.6,4.7-5.1,5.4
			c-2.6,0.7-5.3,1-7.9,1.4c-0.1-0.5-0.4-1.5-0.5-2c-4.8,3.2-10.7,3.6-15.8,6.1c0.1,0.8,0.2,1.6,0.2,2.4c-1-0.5-2-0.8-3-1.2
			c-4.9,1.6-9.7,3.5-14.1,6.2c-2.3,1.4-4.9,2-7.6,1.8c-2.4,1.6-5.1,2.4-7.9,2.1c-4.8-0.4-8.7,3.1-13.3,3.6c-4.1,0.5-8,1.7-11.9,2.9
			c-0.3-0.5-1-1.5-1.4-1.9c-8.7,0.7-17.2,3.4-25.8,4.4c-51,0.1-102,0.2-153,0c-0.3-0.2-0.8-0.6-1.1-0.8c-1,0-2,0-3.1,0.2
			c-0.3-4.4,4.8-5.4,7.9-6.8c-1.9-1.3-4.1,0-6.1,0.3c0.8-1.2,1.7-2.4,2.5-3.6c-4.3-0.7-8.4,1.4-12.4,2.7c-1.9,1-5.3,1.5-4.9,4.3
			c-8.2-1.2-16.3,1.4-24.5,1.8c-9.8,0.3-19.6,1.2-29.4,1.9c-7,0.2-14,0-20.9,0.1c1.4-1.7,2.7-3.4,4.1-5.2c-1.7-0.4-3.6-0.2-4.9-1.6
			c1.1,0,3.3-0.1,4.4-0.2c-0.6-0.3-1.8-0.9-2.4-1.2c0.4-0.2,1.2-0.7,1.6-0.9c-0.1-1.8-0.1-3.6-0.2-5.4c-3.5-1.1-7.1-1.6-10.5,0
			c-1.1-0.7-2.2-1.3-3.4-1.9c-0.9,0-1.8,0.1-2.7,0.2c-0.1,0.6-0.3,1.9-0.4,2.5c-0.8,0.5-1.6,1-2.4,1.5c-4.8,0-9.2,2.2-13.5,3.9
			c-1.3,0.7-2.3-0.5-3.4-0.9c2.8-0.8,5.5-1.7,8.1-3.1c-2.9,0.6-5.8,1-8.6,2c-1.1,1.3-1.6,2.9-2.3,4.5c-1.1,0-2.2,0.1-3.3,0.1
			c0.3,0.9,0.5,1.9,0.8,2.9c-1.4,0-2.7,0-4.1,0c-0.9-0.8-1.7-1.6-2.6-2.3c-0.9,1.1-1.5,2.4-2.2,3.6c-3.5-0.5-7-0.3-10.3,0.7
			c2.1,0.5,4.2,0.6,6.4,0.8c-0.1,0.3-0.3,0.8-0.4,1.1c-0.4,0.3-1.2,0.9-1.5,1.1l-0.9,0.3c-1.6,0.4,0,2.7-0.2,3.9
			c-2.1,0.5-3.8-0.4-5.1-2c-5,2.3-9.9,5.3-15.5,6.4c-0.4,0.3-1.2,1-1.6,1.4c-3.1,0-5,3.2-8.2,2.9c-3.9,1.9-7.7,4.7-12.2,4.9
			c0.1,1,0.4,2.9,0.5,3.9c-1-1.2-2-2.3-3-3.4c-0.4,0.8-1.1,2.5-1.5,3.4c-1.4-0.4-2.5-1.3-3.6-2.2c-1.2,1.2-2.4,2.4-3.8,3.5
			c0.3,0.9,0.5,1.7,0.8,2.6c-1.4,0.3-2.9,0.7-4.3,1c0.4-1.2,0.9-2.5,1.3-3.7c-1.3,0.4-2.5,0.9-3.7,1.4c-0.5-1.1-1-2.2-1.4-3.3
			c2,0,3.9-0.8,5.1-2.3c-3.5-0.2-7.2,1.5-10.5-0.3c0,0.6,0,1.9,0,2.6c-0.6,0.2-1.8,0.5-2.3,0.6c0,0.8,0,2.4,0.1,3.2
			c-1.7-0.2-3.5-0.5-5.1,0.4l-0.6-1.2c-1.5,0.9-3.1,1.9-4.6,2.8c-0.4-0.3-1.2-0.8-1.6-1c0,0.5-0.1,1.6-0.1,2.1
			c-2.5-0.3-4.4-1.7-6-3.5c1.2-0.8,2.4-1.6,3.6-2.4c-1.9-0.5-3.8-1.5-5.8-1c-0.1-0.7-0.2-2-0.3-2.7c-1.6-0.1-3.9-0.1-3.9,2
			c1.1-0.3,2.2-0.5,3.2-0.8c-0.4,1-0.8,2-1.1,2.9c0.8,1.1,1.5,2.2,2.3,3.3c-1.6-1-3.4-1.8-5.1-2.5c0.1,0.6,0.3,1.8,0.5,2.4
			c-1.9-0.5-4.1-1.6-5.9-0.4c-2.8,1.6-6,2.4-8.7,4.2c-0.1,0.7-0.3,2.2-0.4,2.9c0.7,0.1,2.1,0.4,2.8,0.6c-1.1,2-2.9,0.2-4.1-0.4
			c0.3-1.2,0.6-2.5,0.9-3.7c-2.4,0.9-4.6,3-7.3,2.5c-1,0.6-2,1.3-3,2c-0.5-0.2-1.4-0.5-1.9-0.7c-3,1.3-6,3.1-9.4,3.1
			c2.1-1.9,4.7-3.4,7.6-3.5l-0.1-0.9c-1.8,0-6.2,2.6-6-0.6c3.9-2.7,9.6-2.3,13-6c-2.7,0.3-5.3,1.1-7.8,2l-0.2-1
			c0.6-0.1,1.7-0.4,2.3-0.6c-2.1-0.8-4.6-2.2-6.5-0.4c1.3,0.9,2.6,2,2.1,3.8c-3.4-1.8-6.8-3.6-10.5-4.4c-0.3-0.6-1-1.7-1.3-2.3
			c0.7-0.4,1.4-0.8,2.1-1.2c-0.7-0.1-2-0.4-2.7-0.6c-0.4-0.5-1-1.4-1.4-1.8c0.1,0.8,0.2,2.5,0.3,3.3c-0.6,0-1.7-0.1-2.3-0.2
			c0.1-0.4,0.3-1.3,0.5-1.7c-2.5-1.6-5.4-2.5-8.4-2.9c0.2-0.4,0.5-1.2,0.7-1.6c2.2-0.1,4.5-0.2,6.7-0.3c-0.1,0.6-0.3,1.7-0.4,2.2
			c2.1-0.1,4.2-0.1,6.2-0.3c0.4,1,0.8,2,1.2,3c1.5,0.5,2.9,0.9,4.4,1.4c0.3-0.9,0.7-1.7,1-2.5c-0.8-0.2-2.4-0.5-3.2-0.6
			c0.5-0.3,1.5-0.8,2-1c-1.6-1.6-3.8-2.9-5-4.8c3.5-1.6,7.1-3.8,11.1-3c-0.4-0.4-1.2-1.3-1.6-1.8c3.1-0.1,6.3-0.3,9.4-1.1
			c0.4-0.9,0.8-1.9,1.1-2.8c1.8-0.3,3.6-0.6,5.4-1.2c2.6-0.9,5.4-2,6.9-4.5c-0.7,0.2-2.1,0.5-2.9,0.6c-1.3,0.3-2.5-0.3-3.7-0.7
			c0.1,3.4-3.2,3.1-5.6,2.8c0.6,0.4,1.8,1.1,2.4,1.4c-0.8,0.2-2.4,0.5-3.3,0.7c-0.5-1.2-1-2.5-1.5-3.7c-1.7,0-3.1,0.7-4.3,1.7
			c0.5,0.6,1.5,1.7,2,2.3c-2.6,0.9-5.3,1.8-6.9,4.3c0.1-1,0.1-2,0.2-2.9c-1.5,0.5-3,1.1-4.2,2.2c-0.9,0.2-1.7,0.4-2.6,0.7
			c0.4-1.2,0.8-2.4,1.3-3.6c-2.6,1.1-5.2,2.2-7.8,3.3c-0.9-2.4,1.5-2.8,3.1-3.5c2-0.7,3.7-2.1,5.4-3.3c1.1,0.8,2.3,1.7,3.5,2.5
			c0-0.7,0.1-2.1,0.2-2.9c0.6-0.4,1.9-1.3,2.5-1.7c-2.4,0.1-4.8,0.3-7.2,0.5c-1.5,2.1-3.7,3.3-6.1,3.9c-1.7,0.2-3.9,1.9-5.3,0
			c0.4-0.3,1.3-0.8,1.7-1.1c-1.1,0.5-2.3,1.1-3.4,1.7c-1.1-0.8-2.2-1.6-3.1-2.5c-0.2,0.3-0.6,0.9-0.8,1.3c-0.4-0.4-1.3-1.3-1.8-1.8
			c0.3-0.3,1-0.8,1.3-1.1c0.4-0.3,1.4-0.8,1.8-1.1c-9.1,0.6-18.2,0-27.3,0.2c0,0.9,0,2.7,0,3.6c-1.1-1.3-2.2-2.6-3.4-3.8
			c-0.7,1.2-1.3,2.4-2,3.6c-1.9-0.2-3.9-0.5-4.2-2.9c-1,1.4-1.8,3-2.8,4.4c-0.5,0.2-1.4,0.6-1.9,0.9c3.7,2.4-2.8,3.5-4.6,3.7
			c0.6-1.7,1.8-3.1,3.1-4.2c-2.3-0.1-4.3,0.8-6,2.2c-0.1-1.3-0.7-2.6-0.7-3.9c1-0.8,2.2-1.4,3.2-2.1c0.3-0.2,0.9-0.6,1.1-0.8
			c-0.8-0.1-2.4-0.3-3.2-0.4l-0.5,0.3c-0.8,0-2.5,0.1-3.3,0.1c-1.1,0-2.1,0.2-3.1,0.6l-0.4,0.1l-0.1-1.3c-0.2-0.2-0.7-0.6-1-0.9
			c0,0.8-0.1,2.3-0.2,3.1c-1,0.4-2,0.8-3,1.2c0.1,1.4,0.1,2.8,0.2,4.2c2.4-0.3,4.7-0.8,7-1.5c-0.1,0.8-0.4,2.5-0.5,3.3
			c-2.1-1-4.3-0.4-6.4,0.1c-0.4,0.4-1.2,1.3-1.6,1.7c-0.8,0-2.3-0.1-3.1-0.1c1.4-1.1,2.9-2,4.4-2.8c-1.7-3.3-6-1.6-8.9-1.5
			c0.7,1.2,1.3,2.5,1.9,3.8c-1-0.7-1.8-1.6-2.3-2.7c-1.3,0.6-2.6,1.5-4.1,1c-2.3,3.7-8.2-0.1-7.8-3.7c0.8-0.2,2.3-0.5,3.1-0.6
			l0.5-0.1c-1.8-1.2-3.8-2.1-5.9-2.7c-1.3-2.4-4.5-2.6-6-0.3c1.3,0,2.6,0,3.9,0c-0.8,1.2-1,2.5-0.5,3.8c0.9,1.1,2,2,3.2,2.7
			c-1.8,0.7-3.2,0.1-2.9-2c-1.3-0.1-2.5-0.2-3.8-0.4c-0.3,0.4-1,1.1-1.4,1.5c0.8,0,2.3,0.2,3,0.2l0,0.8c-0.8,0-2.6,0.1-3.4,0.1
			c0.9,0.7,1.8,1.4,2.7,2.1c0.1,0.5,0.2,1.6,0.3,2.1c0.6,0.3,1.9,0.8,2.5,1.1c-1,1.7-1.6,4.1-4,4.2c-0.2-1.8-1-3.3-2.1-4.7
			c-1.5,0.2-2.8,0-4.1-0.8c1.5-0.9,3-1.7,4.4-2.8c-1.5,0-3,0-4.5,0.1l0-1.5c1.5,0,3.1,0,4.6,0c-0.4-0.3-1.2-1-1.6-1.3
			c-1.9,0.4-3.8,0.7-5.4,1.8c-2.6,1.7-5.8,1.9-8.3,3.7c-3.1,0-6,1.3-8.3,3.3c-0.4-0.3-1.3-0.8-1.8-1.1c-1.3,1-2.7,2-4.1,3
			c-0.9-0.4-1.7-0.8-2.6-1.1c-0.9,0.8-1.9,1.5-2.8,2.2c-0.9-2.1,1.5-3.1,2.6-4.4c-3.1,0.7-6.6,3.5-9.5,1.1c0.5-0.9,0.9-1.8,1.4-2.7
			c3.8,1.4,6.6-3,10.3-2.1c1.3-1.1,2.6-2.2,3.8-3.3c-3.3-0.3-6.1,1.4-9.1,2c-0.4-0.2-1.1-0.6-1.4-0.9c0.9-0.1,2.6-0.4,3.5-0.5
			c-0.1-0.3-0.2-0.8-0.3-1.1c-2.7-0.4-5.9-1.5-8,1c0.8,0.2,2.4,0.5,3.3,0.7c0,0.7-0.1,2.1-0.1,2.8c-1.8,0.8-3.4-3.3-4.5-0.3
			l-0.7,0.8c0.2-0.7,0.5-2.2,0.7-2.9c-1.7-0.2-3.4-0.4-5-0.5c0.3-0.5,1-1.5,1.3-2c-1.8,0.3-3.5,0.6-5.2,1.1c0.1-0.5,0.3-1.6,0.4-2.1
			c-0.4-0.5-1.2-1.5-1.6-1.9l1.9-0.6c0.1,0,0.3,0,0.3,0l-0.1,0c-0.7-0.3-2.1-1-2.8-1.3c-0.6-0.6-1.2-1.3-1.9-1.9
			c0.3,0.7,0.9,1.9,1.2,2.6c-1.8,2.8-3.1-1.1-4.9-1.8c-3-1-6.3-0.4-9.4-0.2c-2,0-3.8,1-5.5,1.9l0.7,0.4c0.7,0.7,0.8,1.7,0.2,2.5
			c-0.7-0.3-2.1-0.8-2.8-1.1c-0.3-0.1-0.9-0.3-1.2-0.5c-1.4,0.5-2.8,1.1-4.2,1.8c-5.4,2.5-11.2,4.7-17.2,5.1
			c1.7-0.9,3.4-1.7,5.2-2.5c-1.4,0-2.8,0.1-4.3,0.1c0.1-0.6,0.4-1.8,0.6-2.5c0.1-0.5,0.4-1.6,0.5-2.1l0.3,1.4
			c2.3-1.4,4.8-2.6,7.2-3.7c1.5-0.5,3-0.9,4.5-1.3c-5.8,0.3-11.6-0.4-17.2,1.4l0.7-0.5l0.7-0.5c-13.4-0.4-26.9,0.2-40.3-0.3
			c0.2-34.2,0-68.3,0.1-102.5c0.2-2.5-1.1-4.7-2-7c-1,0-2,0-3,0c-5.3,0-11.4,0.9-15.5-3.3c0.2,0.8,0.5,2.4,0.7,3.2
			c-2.9-1.7-5.9-0.9-8.9-0.2c-6.3-1.1-12.7-0.6-19.1-0.7c-1.8-0.2-3.4,0.9-4.9,1.6c-2.5-0.3-5,0.9-7.5,0.5c1.4-2.4,4.4-2.2,6.7-2.9
			c3.8-0.6,7.1-2.7,10.9-3.5c1.7-0.4,3.4-1.1,4.8-2.1c-0.2-2-2.6-1.9-4-2.7c-1.2-1.6-2.3-3.2-3.4-4.8c-0.8,2.7-3.8,2.1-6,2.5
			c-2.7,0.2-5.2,1.1-7.5,2.3c-0.1-0.5-0.3-1.5-0.4-2c-1.4,0.4-2.7,0.7-4.1,1.1c1.6-3.1,5.3-3.2,8.2-4.2c0.6-2.1,1.6-4.1,3.2-5.7
			c-0.7-1.3-1.3-2.8-1.6-4.2c-1.9,0.1-2.8,1.8-3.9,3.2c0.2,0.5,0.5,1.4,0.6,1.9c-2.9,2.9-8.6,0.8-9.7,5.5c-3.2,1.4-6.1,3.4-9.3,4.9
			c-2,0.8-3.4-0.5-4.1-2.3c-6.4,0.9-12.7,2.5-18.9,4.2c-2.5,0.6-3.6-2.9-1.1-3.6c7.1-3.4,14.9-4.8,22.2-7.8c4-1.8,8.6-2.2,12.3-4.7
			c-0.7-0.1-2.2-0.4-2.9-0.5c1.3-0.8,2.8-2.1,4.5-1.6c1.8-0.1,4.2,1.3,5.3-0.7c-0.5,0.2-1.6,0.6-2.2,0.8c-0.4-1-0.7-2-1.1-3
			c-3.2,0.6-7,3.1-9.8,0.2c-4.4,1.6-8.6,3.9-13.2,4.9c-6.1-0.2-12.2,1-18,3c-1.6,0.6-2.7,0.2-3.4-1.4c0.5-1.8,2.3-2.1,3.8-2.7
			c5.5-1.9,10.5-4.6,15.5-7.5c2.4-1.6,5.3-1.5,8-2c7.1-1,14-2.5,21-4c-0.3-0.4-0.7-1.1-1-1.5c-3,0.1-6,0-9-0.5
			c-3.4-0.7-6.5,1.7-9.9,1.7c-4.5,0-9,0.3-13.4-0.8c-2.9-2.3-2-6.2-2.4-9.4c-1-1.3-3.2-2-2.8-3.9c0.3-3.8,5.3-5.4,4.4-9.6
			c-0.7-0.2-2-0.7-2.7-0.9c-0.8-5,5.6-5.2,7.6-8.8c2-3.4,6.2-4.4,9.2-6.7c-4.7-0.5-8.3,3.6-12.9,3.5c-2.3,0.2-2.9-2.6-4.8-3.2
			c-2.1,0.3-4.1,1.1-6.2,1.1c-1.9,0.2-1.8-2-1.5-3.3c0.8-0.9,2.1-1.3,3.2-1.9c-0.1-1.2-0.2-2.4-0.4-3.6c1.3-1.7,2.9-3.2,4.6-4.4
			c-0.4-1.2-0.9-2.4-1.3-3.5c0.7-1.4,1.4-2.7,2.1-4.1c-1.2-1.3-2.4-2.6-3.5-3.9c4.5-4.1,10.9-5.3,15.8-9c-1.8-1.9-1.9-4.4-1.8-6.8
			c9.7-4.1,19.3-8.3,28.9-12.5c-0.6-0.8-1.2-1.6-1.9-2.3c2.2-0.4,4.3-1.1,6.3-2.1c-1.1-0.9-2.4-1.7-3-3c-0.8,0-2.3,0.1-3.1,0.2
			c0.5-3.6,4.3-4.1,7.2-4.1c5.5,0.2,11.3-1.6,15.2-5.6c3.7-2.6,8.3-3.4,12.3-5.6c3.5-1.9,7.6-2.5,11.4-3.5c0.6-2.9,3.5-3.9,5.8-5.1
			c1-0.5,2.1-1,3.1-1.6c1.3-0.9,3.6-1.1,3.9-3c-0.8-0.4-1.6-0.5-2.6-0.3c-0.1-0.5-0.2-1.4-0.3-1.8c-0.7,0.2-2.1,0.5-2.8,0.7
			c-0.2,0.6-0.6,1.7-0.8,2.2c-1.3-1.1-1.3-2.2-0.2-3.2c1.5-0.6,3.1-1.2,4.6-1.9c1.4-0.7,2.8-1.4,4.2-2.1c0.1,2.2-0.6,4.3-1.1,6.4
			c3.9-0.5,6-4.3,8.8-6.7c-0.6-0.3-1.9-0.8-2.5-1c0.2-1.4,0.7-2.8,0.7-4.3c-1-2.5-3.1-4.3-4.8-6.2c0.2-0.9,0.4-1.7,0.7-2.6
			c-1.3-0.1-2.6-0.2-3.9-0.3c-1.7-4.9-1-10.2-0.8-15.3c0.9-1.2,1.8-2.4,2.6-3.6c-1.2-1.9-2.3-3.9-2.9-6c-0.4-27-0.1-54-0.2-80.9
			c0.1-23.7-0.2-47.4,0.2-71.1c8.4-3.4,16.4-8.3,25.5-10.1c-5.5,3.8-12.4,4.8-17.6,9.1c5.3-0.6,9.7-3.7,14.9-4.5
			c8-2.4,15.6-5.9,23.4-8.9c-1-0.1-3.1-0.2-4.1-0.3c1.6-1.6,3.2-3.4,5.5-3.9c8.4-2.7,16.6-5.9,24.2-10.5c3.2-1.7,7.8-3.6,10.9-0.8
			c-0.7,0.5-2,1.5-2.7,2c4.4-1.2,8.3-3.7,12.7-4.7c1.9-0.5,3.6-1.6,5.3-2.5c0.4,0.4,1.1,1.3,1.4,1.8c1.4,0,2.8,0,4.2,0
			c1.5-0.7,3-1.2,4.6-1.6c0.2-0.5,0.5-1.5,0.7-2c-2,0.4-4,0.8-6,1.1c3.7-2.9,8.8-3.1,12.6-5.9c-5.7,0.3-10.5,4.1-16.3,4
			c1.1-0.8,2.3-1.6,3.4-2.4c4.9,0.1,8.9-3.4,13.8-4c0,0.7-0.1,2-0.1,2.7c1.9-1,3.8-2.2,5.6-3.4c5.7-3.8,13.1-3.8,19.1-7
			c0.1-0.7,0.1-2,0.2-2.7c1.2-0.6,2.3-1.1,3.5-1.7c0.4,0.3,1.1,0.8,1.5,1.1c2.2-0.9,4.9-1.3,6.3-3.3c2.6,0.1,4.9-0.9,6.9-2.3
			c0,1.7,0.5,3.2,2,4.2c0.5-1,1-2,1.5-3c4,0.3,6.9-2.8,10.7-3.5c0.4-0.4,1.2-1.1,1.6-1.5c1.9-0.1,3.8-0.1,5.7-0.2
			c0.1-0.8,0.1-2.4,0.2-3.2c1.3,0.3,2.5,0.8,3.8,1.3c1.1-0.6,2.1-1.3,3.2-1.9c0.4,0.3,1.3,0.8,1.8,1.1c2-2.1,4.2-4.1,7-5
			c9.4-2.7,18.5-6.8,28.2-8.4c-1,1.2-1.9,2.5-2.3,4.1c2.7-1.1,5.2-2.5,8.2-2.8c6.6-2.8,12.8-6.7,19.7-8.6c5.4-1.5,10.6-3.8,16.1-5.1
			c-0.6-0.3-1.9-0.9-2.5-1.3C380.6,11,386.3,10,392,9.3z M328.8,30.1c-2.7,1.5,0.7,2.6,1.9,1C332.1,30,329.5,29.3,328.8,30.1z
			 M408.8,36 M398.3,45.8c2.5-0.5,6.2,0,7.4-2.8C403.2,43.8,400.7,44.7,398.3,45.8z M377.9,49.2c0.2,1.3,1,1.6,2.2,0.7
			C379.8,48.5,379.1,48.3,377.9,49.2z M422.8,51.1 M370.6,54c0.1,0.7,0.4,2,0.5,2.6c1.5-0.3,3-0.7,4.6-1
			C375.3,53.2,372.3,54.4,370.6,54z M359.8,56.3 M364.2,56.1c-0.9,1-1.8,1.9-2.8,2.7c1.8-0.1,3.5-0.1,5.3-0.2
			C366,57.8,365.1,56.9,364.2,56.1z M348.6,62.4 M341.4,63c-0.4,2.3,1.8,2.7,3.5,3.4C346,64.1,343.5,62.4,341.4,63z M336.8,67.4
			c-0.2,1.6,3.4,1.2,3.2-0.2C338.9,66.5,337.8,66.6,336.8,67.4z M333.9,68.1 M322.1,74c1.9,0.3,3.5-0.5,4.2-2.3c1.6,0,3.2,0,4.8,0
			c0.1-0.6,0.2-1.9,0.3-2.5C328.3,70.7,323.6,70.5,322.1,74z M438.7,70.3 M333.7,72.1 M319.8,74.4c-0.8,0.9-2.2,2.1-1.8,3.4
			C320,79.5,322,75.1,319.8,74.4z M327.8,74.1 M313.8,77.2c-1.3,0.7-1.4,1.4-0.1,2.1C315,78.5,315,77.9,313.8,77.2z M903.8,79.8
			 M912.9,87.1c-0.4,0.9-0.7,1.8-1.1,2.8c2.2,0,5.2-0.1,5.8-2.8c-1,0.3-2,0.6-3,0.8C914.2,87.7,913.4,87.3,912.9,87.1z M956.8,123.1
			 M963.8,124.6c-0.4,1.5-0.8,2.9-1.1,4.4c-1.8-0.2-4-1-5.5,0.6c-1.6,0.7-0.1,2.4,0.5,3.2c0.6-1,1.3-1.9,2-2.8
			c1.9-0.7,4-0.2,5.8-1.3c1.6-0.5-0.4-2.1-0.8-2.9c1.1-0.2,2.1-0.6,3-1.3C966.3,125,965,125.7,963.8,124.6z M957.6,125
			c-0.6,1.6,0,2.1,1.6,1.6C959.8,125,959.3,124.5,957.6,125z M949.9,127.2c0.3,1.3,1,1.5,2.2,0.6C951.8,126.5,951,126.3,949.9,127.2
			z M955.6,134.9c0,0.8,0,2.4,0,3.2c-1.5,0.5-3,1-4.3,1.7c1.2-0.1,2.5-0.2,3.7-0.3c1-1.4,1.9-2.8,2.6-4.4
			C957.1,135.1,956.1,135,955.6,134.9z M947.8,137.1c-0.9,1.4,1.5,2.6,2.4,1.4C951.2,137.1,948.7,135.9,947.8,137.1z M943.5,138.4
			c-0.5,1.4,0,1.9,1.4,1.6C945.4,138.6,944.9,138.1,943.5,138.4z M960.7,138.2c-3,2.4,3.2,1.7,3.4-0.1
			C962.9,137.5,961.8,137.5,960.7,138.2z M935.2,142.7c0.8,0,2.4,0.1,3.1,0.1c0.3-0.9,0.7-1.8,1-2.7
			C937.8,140.7,936.3,141.4,935.2,142.7z M955.9,140.2c0.2,1.3,0.9,1.6,2.2,0.7C957.8,139.5,957.1,139.3,955.9,140.2z M951.6,146.4
			c-2.7,1.3,2,4.2,2.7,1.8C954.2,146.9,952.7,146.1,951.6,146.4z M944.3,149.3c1,0.5,2.1,0.9,3.1,1.4c1-0.5,2.1-1,3.2-1.4
			C948.5,149.2,946.4,149.3,944.3,149.3z M953.8,158.1 M956.6,159.4c-1.1,1,0.3,3.3,1.7,2.4C959.3,160.8,957.9,158.5,956.6,159.4z
			 M948.2,160c1,1,2.1,2.1,3.1,3.1c0.3-0.8,0.6-1.6,1-2.4C950.8,160.4,949.5,160.2,948.2,160z M960.2,161.9c-0.5,0.5-1.5,1.5-2,1.9
			c-1.4-0.3-2.9-0.5-4.3-0.7c-0.2,0.8-0.4,2.3-0.6,3.1c-1-0.8-1.9-1.6-2.8-2.4c-0.5,1.1-0.9,2.2-1.4,3.2c-0.4-0.7-0.9-1.4-1.3-2
			c-0.3,0.9-0.6,1.8-1,2.6c0.7,0.2,2,0.7,2.6,0.9c3.1-1.6,6.4-2.5,9.6-3.9C960.3,164.2,960.3,163,960.2,161.9z M933.8,176.4
			c-1.4-0.1-2.7-0.1-4.1-0.2c-0.2,0.4-0.5,1.2-0.6,1.7c-1.7-0.9-3.3,0.4-4.8,0.9c-1.1,1.6-2.6,2.8-4.1,3.9c2.4-1.3,4.9-2.7,7.1-4.2
			c1.2-0.1,2.6,0,3.3-1.2c4.1,0.9,6.7-3.6,10.9-3c-2.4-0.1-4.9-0.2-7.3-0.2C934.2,174.7,933.9,175.8,933.8,176.4z M941.8,176.2
			 M923.8,186.6c1.2,0.6,2.5-1.4,1.7-2.4C924.2,183.6,923.1,185.7,923.8,186.6z M921.2,192.1c2.3-0.9,5-1.6,6.6-3.6
			C925.4,189.2,922.5,189.7,921.2,192.1z M911.1,225.4c-0.8-0.1-1.6-0.1-2.4-0.1c-0.4,0.9-0.8,1.7-1.2,2.6c-1.7-0.3-3.3-0.1-4.8,0.5
			c0.2,0.4,0.6,1.1,0.9,1.5c1.3,0.2,2.5,0.3,3.8,0.3c0.6,0.5,1.2,1,1.8,1.6c0-0.7-0.1-2.2-0.1-2.9c1.1-0.9,2.2-1.7,3.4-2.6
			c1.4,1.6,3.5,1.8,5,0.2c-0.8,0-2.4-0.1-3.2-0.2c0.8-1.6,3-2.3,4.7-1.9c0.3,1.3,0.6,2.6,0.8,3.9c0.9-0.6,1.7-1.3,2.3-2.2
			c-0.5-1.3-1.4-2.4-2.2-3.5C917,223.5,914,224.2,911.1,225.4z M912.3,251c4-0.2,7.1-3.4,11.2-3.8l0.8-0.4l-0.1-0.8
			c-0.4,0-1.3,0.1-1.7,0.2C919.2,247.9,915.5,248.9,912.3,251z M120.3,252.8c2.3,1.3,4.9-0.1,7.3-0.3c-0.7-1.2-1.3-2.4-1.9-3.6
			C123.9,250.2,122.1,251.5,120.3,252.8z M115.7,257.5c-0.9-0.1-2.6-0.3-3.5-0.4c0.8,3.3,4.3,1.2,5.5-0.7
			C117.2,256.7,116.2,257.2,115.7,257.5z M114.6,264.5c-0.3,1.4,0.2,1.9,1.6,1.4C116.5,264.5,115.9,264,114.6,264.5z M104.8,311
			c-0.8,0-3.2,1.4-1.5,2C105,313.7,108.1,310.5,104.8,311z M201.9,580.7c0.3,2.3,3.1,2.1,4.8,2.9c0.3-0.7,1-2,1.3-2.7
			C205.9,580.7,203.9,580.7,201.9,580.7z"/>
	</g>
	<path class="st0" d="M761.6,7.4c2,0.7,1,3.3,1.4,4.8c-1.8,0-3.1-1.1-4.3-2.2C759.9,9.4,760.9,8.5,761.6,7.4z"/>
	<path class="st0" d="M416.3,11.2c1.3-2,4.3-3,6.4-1.7C420.6,10.2,418.4,10.8,416.3,11.2z"/>
	<path class="st0" d="M605.3,20.2c4.9-0.4,9.8-0.7,14.5-2.4c-0.1,0.8-0.2,2.4-0.3,3.2c-3.9,0.9-8,2-12,1
		C606.3,22,605.6,21.4,605.3,20.2z"/>
	<path class="st0" d="M430.5,19.7c0.2-1.4,2.7-1.1,3.7-0.5C433.9,20.6,431.5,20.3,430.5,19.7z"/>
	<path class="st0" d="M749.8,19.2"/>
	<path class="st0" d="M408.6,21.2"/>
	<path class="st0" d="M451.9,23.2c1.2-0.9,1.9-0.7,2.2,0.6C452.8,24.7,452.1,24.5,451.9,23.2z"/>
	<path class="st0" d="M423.1,24.7c1.1-0.1,2.2-0.1,3.3-0.2c-0.3,1.9-2.2,2-3.8,2.4C422.7,26.4,423,25.3,423.1,24.7z"/>
	<path class="st0" d="M448.7,24.1"/>
	<path class="st0" d="M414.8,26.2c1.2-0.8,2-0.6,2.3,0.7C415.8,27.7,415.1,27.5,414.8,26.2z"/>
	<path class="st0" d="M429.7,29c3.7-1.9,7.8-3.2,12-3.3l-0.6,1.2c-2.7,0.6-5.4,1.3-8.1,1.6c0.1,0.7,0.2,2,0.2,2.6
		C432,30.5,429.5,31,429.7,29z"/>
	<path class="st0" d="M602.8,27.2c0.7-1.2,3.5-0.2,1.9,1C604,29.2,601.5,28.5,602.8,27.2z"/>
	<path class="st0" d="M405.7,30.1"/>
	<path class="st0" d="M427.8,30.2c1.5-0.4,2,0.1,1.7,1.4C428,32,427.4,31.6,427.8,30.2z"/>
	<path class="st0" d="M443.1,33.2c1.9-2.5,5.7-2.7,8.5-1.8C448.9,32.2,446,32.9,443.1,33.2z"/>
	<path class="st0" d="M432.6,32.2"/>
	<path class="st0" d="M427.6,32.9c1.6-0.1,3.2-0.2,4.9-0.3c-0.6,2-3,2.2-4.6,3.1C427.8,35,427.6,33.6,427.6,32.9z"/>
	<path class="st0" d="M574.5,36.3"/>
	<path class="st0" d="M509.3,37.4c0.8,0.1,1.6,0.3,2.4,0.4c0.3,0.6,1,1.8,1.4,2.4c-1.8-0.2-4-1.6-5,0.8c-0.4-0.4-0.9-0.9-1.3-1.3
		C508.2,39.7,509.1,39,509.3,37.4z"/>
	<path class="st0" d="M487.9,38.1c1.4-0.3,1.9,0.3,1.6,1.6C488.1,40,487.5,39.4,487.9,38.1z"/>
	<path class="st0" d="M426.8,41.3c1.7,0.5-0.2,2.4-1.3,2C423.6,42.8,425.6,40.8,426.8,41.3z"/>
	<path class="st0" d="M490.9,43.2c3.2-0.4,0.5,3.3-1.4,2C487.6,44.5,489.8,43.1,490.9,43.2z"/>
	<path class="st0" d="M503.9,49.3c4.1,0.9-2.6,3.3-3.5,1.8C501.1,49.9,502.6,49.6,503.9,49.3z"/>
	<path class="st0" d="M994.6,51.7c-0.9-1.4,1.6-3,2.8-2.2C998.1,50.9,995.8,52.6,994.6,51.7z"/>
	<path class="st0" d="M488.2,51.8c0.6-2.3,3.6-2.7,4.3-0.3C491.1,51.7,489.7,51.7,488.2,51.8z"/>
	<path class="st0" d="M496.9,50.2c1.2-0.8,2-0.5,2.3,0.8C497.9,51.7,497.2,51.5,496.9,50.2z"/>
	<path class="st0" d="M978.6,51.1c1-1.3,3.7,0.1,2.4,1.6C980.1,54.1,977.4,52.6,978.6,51.1z"/>
	<path class="st0" d="M1014.7,51.2"/>
	<path class="st0" d="M484.8,52.1c1.5-0.5,1.9,0,1.2,1.4C484.6,53.9,484.2,53.5,484.8,52.1z"/>
	<path class="st0" d="M500,53.7c2.1-0.6,4.1-1.8,6.2-2.1c0.7,1,1.3,2.2,1.7,3.4c-2.7,0.1-5.4,0.2-8,0.4C500,54.9,500,54.1,500,53.7z
		"/>
	<path class="st0" d="M931.3,55.3c3.9-0.6,7-3,10.8-4c-1.3,1.5-2.8,2.8-3.9,4.5c-1,0.6-2,1.3-3,1.7C933.8,56.8,932.6,56,931.3,55.3z
		"/>
	<path class="st0" d="M1007.1,52.8c1.5,0.1,3.7-1.2,4.5,0.7c-3.2,1.7-6.8,3.9-10.4,2c1.3-0.3,2.7-0.6,4.1-0.9
		C1005.9,54,1006.5,53.4,1007.1,52.8z"/>
	<path class="st0" d="M480.7,54.2"/>
	<path class="st0" d="M804.5,57.8c7.1-2.3,14.6-2.8,21.9-3.8c2.4-0.5,4.7,0.3,7.1,0.5c6.9-1.5,14.1,2.5,20.8-0.5
		c-0.1,0.7-0.3,2.2-0.3,2.9c1,0,3.1,0.1,4.1,0.1c-0.5,0.4-1.6,1.3-2.2,1.7c0,0.7-0.1,2-0.2,2.6c-23.5-0.1-47.1,0.2-70.6-0.1
		c0.3-0.4,0.8-1.2,1-1.5C792.3,60,798.4,58.6,804.5,57.8z"/>
	<path class="st0" d="M985.8,54.2"/>
	<path class="st0" d="M962,57c3.1-1.8,6.7-2.4,10.2-2.4c-1.5,1.9-1.5,4.3-1.6,6.6c-1.9,0-3.8,0.1-5.6,0.1c-2.9,3.2-8.4,2.8-10.2,7.3
		c-1.6,0.3-3.3,0.6-4.9,0.8c1.2-1.9,2.8-3.5,4-5.4c-3.7,0.6-6.9,2.5-10.4,3.6c0.5,0.7,1,1.3,1.5,1.9c0,0.8,0,1.5,0.1,2.3
		c-0.9,0.9-1.9,1.8-2.8,2.6c0-1.3,0.3-2.4,1-3.5c-2.4-2.7-5.8-1.8-8.7-0.4c2.1-2.3,3.9-7.2,7.6-6.5c0,0.6,0.1,1.7,0.1,2.3
		c3.6-2.8,7.8-4.7,12.3-5.7c2-0.3,3.6-1.6,5.2-2.7c0.7,0.7,1.5,1.5,2.2,2.2c-3,0-5.5,1.9-7.6,3.7c3.9-0.2,7-2.7,10.3-4.4l-1.8,0.3
		C962.6,59.1,962.2,57.7,962,57z"/>
	<path class="st0" d="M979.7,55.4c1.1-0.9,2.2-1,3.4-0.4C983.8,57.3,978.3,58.2,979.7,55.4z"/>
	<path class="st0" d="M485.3,57.2c1.9-0.2,3.7-0.5,5.4-1.4c1.2,0.6,2.3,1.2,3.2,2.2c-0.7,0.2-2,0.6-2.7,0.7
		c-0.1,0.6-0.4,1.8-0.5,2.4c-2.7,0-5.4,0-8.1-0.1c0.7-0.4,2-1.2,2.6-1.6C485.2,59,485.3,57.8,485.3,57.2z"/>
	<path class="st0" d="M945.9,56.2c1.2-0.9,2-0.7,2.2,0.6C946.8,57.7,946.1,57.5,945.9,56.2z"/>
	<path class="st0" d="M990.7,61.2c1.6-3.7,5.8-4.3,9.1-5.6c-0.3,1.5-0.8,2.9-1.4,4.3C995.8,60.1,993.2,60.7,990.7,61.2z"/>
	<path class="st0" d="M236.7,57.2"/>
	<path class="st0" d="M233.9,58.2"/>
	<path class="st0" d="M922.4,62.4c-0.7-1.8,0.3-3.4,0.9-5c1.1,0.9,3.7,1.3,2.9,3.3c-0.4,0.3-1.3,0.8-1.8,1
		C923.9,61.9,922.9,62.2,922.4,62.4z"/>
	<path class="st0" d="M936.6,59.1c1.7-0.5,2.2,0,1.6,1.6C936.5,61.2,936,60.6,936.6,59.1z"/>
	<path class="st0" d="M981.7,59.1c1.2,0.7,1.1,1.3-0.3,2C980.2,60.5,980.3,59.8,981.7,59.1z"/>
	<path class="st0" d="M987.7,59.2"/>
	<path class="st0" d="M227.6,60.1"/>
	<path class="st0" d="M975.9,63.1c3.4-0.6,6.6-2,10.1-2.2c-2.3,2.6-6.4,3.1-9.6,3.4L975.9,63.1z"/>
	<path class="st0" d="M923.5,64.5c1-0.6,2-1.2,3.1-1.7c4-0.2-1.5,4-2.9,2.2L923.5,64.5z"/>
	<path class="st0" d="M967.5,66.9c1.7-1.1,3.4-2.2,5.1-3.2c0,0.6,0.1,1.9,0.1,2.5c-2.5,1.5-5.2,2.7-8,3.4c0.3-1.3,0.4-2.6-0.1-3.8
		C965.5,66.1,966.5,66.5,967.5,66.9z"/>
	<path class="st0" d="M947.7,67.1"/>
	<path class="st0" d="M197.2,74.2c3.1-3.2,8.1-4.7,12.6-5.2C205.7,71,201.6,73,197.2,74.2z"/>
	<path class="st0" d="M927.5,69.1c0.5,0.3,1.6,1,2.2,1.4c1-0.6,2-1.1,3-1.7c0,0.8,0,2.3,0,3c-1.6-0.2-3.3-0.4-4.9-0.6
		C927.7,70.7,927.5,69.6,927.5,69.1z"/>
	<path class="st0" d="M933.8,70.2"/>
	<path class="st0" d="M895,71.2c2.8-2.8,2.6,3.7-0.1,1.6C894.9,72.4,895,71.6,895,71.2z"/>
	<path class="st0" d="M907.5,71.3c1.2-0.5,3,1.3,2.5,2.5C908.5,75,906.2,72.7,907.5,71.3z"/>
	<path class="st0" d="M937.7,71.1"/>
	<path class="st0" d="M921.1,72c1.1,0.1,2.2,0.3,3.1,0.8c0.3,0.5,0.8,1.6,1,2.2c-0.6,2,2.9,0.6,3.8,0.1c0,0.3,0,1,0,1.3
		c-1.9,0.8-3.9,1.5-5.9,2.3c1.7,0.1,3.4,0.1,5.2,0.2c-1.9,3-5.6,0.4-8.2-0.1c0.6-0.8,1.3-1.6,1.9-2.4c-1.3-0.5-2.5-1-3.8-1.5
		c-0.6,1.2-1.3,2.5-1.9,3.7c-2-0.5-5.6,1.3-6.2-1.5c3.2-1.2,6.7-2.2,8.5-5.4C917.6,75,921.4,74.1,921.1,72z"/>
	<path class="st0" d="M970.6,73.2"/>
	<path class="st0" d="M986.8,73.2c1.3-0.9,2-0.7,2.3,0.6C987.8,74.6,987,74.4,986.8,73.2z"/>
	<path class="st0" d="M999.7,75.3c2.4-0.7,4.7-1.6,7-2.5c-0.8,1.3-1.6,2.7-2.4,4.1c-0.7-0.2-1.4-0.4-2.1-0.6c-1.6,3-6.1,1.6-8.1,4.6
		c-1.8-0.3-3.6-0.6-5.4-0.9c-0.1,0.7-0.2,2.2-0.3,3c-1.5,0.6-2.9,1.3-4.4,1.9c-0.6-1.3-1.1-2.7-1.7-4c3.1-0.1,5.9-1.3,8.7-2.4
		c0.2-0.5,0.5-1.5,0.7-2c1.7,0.6,3.4,0.6,4.8-0.6c0.5,0.4,1.5,1.3,2,1.7C998.8,76.9,999.4,75.8,999.7,75.3z"/>
	<path class="st0" d="M978.8,74.4c1-1,3.8,0.1,2.7,1.6C980.5,77.2,977.6,75.9,978.8,74.4z"/>
	<path class="st0" d="M903.8,75"/>
	<path class="st0" d="M985.1,77.7c0.9-0.9,1.6-2.5,3.1-2.6c1,0.8,1.6,1.9,2.4,2.8C988.7,77.9,986.9,77.8,985.1,77.7z"/>
	<path class="st0" d="M899.7,76.1"/>
	<path class="st0" d="M892.7,77"/>
	<path class="st0" d="M906.7,77.2"/>
	<path class="st0" d="M982.8,77.1c3.3-0.3,0.7,3.2-1.4,2C979.5,78.5,981.7,76.9,982.8,77.1z"/>
	<path class="st0" d="M1002.5,81.6c1.8-1.2,3.7-1.9,5.8-2.5c0,0.7,0.1,2,0.2,2.6c-0.8,0.1-2.3,0.2-3,0.3c0,1.2-0.1,2.5-0.1,3.7
		c-2.9,0.6-5.8,0.9-8.8,0.5c-1.2,0.5-2.3,1.5-3.3,2.3c-0.9-0.8-1.8-1.7-2.7-2.5c2.6-1,5.5-1.6,7.8-3.4c-0.6-0.4-1.9-1.3-2.5-1.7
		C998.1,80.4,1000.3,80.7,1002.5,81.6z"/>
	<path class="st0" d="M1000.7,88.2"/>
	<path class="st0" d="M998.8,92.3"/>
	<path class="st0" d="M978.6,93.2"/>
	<path class="st0" d="M133.7,94.3"/>
	<path class="st0" d="M986.9,94.1c1.7,1.2-2.7,3.7-3.4,2.2C984,95,985.5,94.2,986.9,94.1z"/>
	<path class="st0" d="M994.4,98.1c1-2.5,3.5-4.3,6.2-4.4C1000.8,97.1,996.8,97.5,994.4,98.1z"/>
	<path class="st0" d="M986.7,97.9c0.3-1.3,1.1-1.6,2.4-0.8C988.8,98.4,988,98.7,986.7,97.9z"/>
	<path class="st0" d="M991.6,97.4c1.6-0.6,2.2-0.1,1.7,1.5C991.7,99.6,991.1,99.1,991.6,97.4z"/>
	<path class="st0" d="M123.6,98.2"/>
	<path class="st0" d="M110.9,105.1c2.5-4.2,8.1-4.8,12.3-6.5C119.7,101.7,115.3,103.6,110.9,105.1z"/>
	<path class="st0" d="M968.9,99.3"/>
	<path class="st0" d="M979.6,102.1c1.6-0.9,2.5,1.4,0.6,1.7C978.6,104.7,977.7,102.4,979.6,102.1z"/>
	<path class="st0" d="M981.8,104.1c2.5-0.4,5.2-0.5,7.7-0.3c0.2,0.4,0.5,1.1,0.6,1.5C987.4,105.1,983.8,106.9,981.8,104.1z"/>
	<path class="st0" d="M86.2,114.8c5.3-2.3,10.2-5.3,15.7-6.8c-2.8,3.3-7.5,4-10.6,6.9c2.5-0.2,5.8-0.2,7.3-2.7
		c0.7-0.1,2.1-0.3,2.8-0.5c1-1.1,2.2-2,3.5-2.7c0.1,2.3,0.2,4.7,0.1,7c-0.1,46.7,0.2,93.4-0.1,140.2c-3.4-0.1-6.7,0-10.1,0
		c0.2,0.4,0.5,1.3,0.7,1.7c-0.4,0.3-1.2,0.8-1.6,1c-0.9-2.7-3.9-2.5-6.2-3.2c-2.1-0.4-3.9-1.8-5.6-3c-4.5,0.9-8.3-1.8-12.6-2.6
		c-3.8-1-7.9-0.3-11.1,1.9c-0.6-1-1.2-2-1.8-3c3.8,0.3,7.5-1.1,11.2-1.7c1.1-0.4,3.3-0.5,3.3-2.1c-4-4.8-10.9-3.9-16.2-5.9
		c-3.1-1.3-6.3-2.3-9.6-2.7c-3.5-0.5-6.5-2.6-9.9-3.8c-4.1-0.2-8,1.8-12.1,1.6c-2.2-0.8-4.2-1.9-6.2-3c-0.3-3.3-3.6-4-6.2-5.1
		c-1-4.2,0.3-8.4,1.3-12.4c2.7-1.6,5.8-2.8,8.1-5c-0.1-0.4-0.2-1.1-0.3-1.5c-3.9,0.1-8,1.3-11.7-0.3c-1.2-2.1-0.3-4.7-0.8-7
		c-0.7-3-0.4-6-0.4-9c-0.7-3.5-4-5.2-7.2-6c0.2-3.4,1.1-6.6,1.8-9.9c1.9,0.1,3.8,0.4,5.8,0.3c2.4-0.7,3.5-3.1,4.7-5
		c2.3-4,5-7.7,7.8-11.4c-0.1-2.2-0.5-4.5,0.1-6.7c2.3-2,5.1-3.3,7.2-5.5c3.1-3.1,7.2-4.8,10.2-7.9c1.9-2,4.9-2.2,6.9-4.1
		c2-2.1,5.2-1.5,7.6-2.6c5.6-3,11.1-6.3,17-8.8C74.9,120.8,80.3,117.2,86.2,114.8z"/>
	<path class="st0" d="M985.6,108.3"/>
	<path class="st0" d="M967.7,134.2"/>
	<path class="st0" d="M987.2,141c0.3-2.5,2.8-3.1,4.7-3.8c0,0.7,0,1.4,0.1,2.2C990.2,139.1,988.7,140.3,987.2,141z"/>
	<path class="st0" d="M980.8,141.1"/>
	<path class="st0" d="M978.8,143.3"/>
	<path class="st0" d="M981.7,144c0.7-0.7,3.5-0.2,2.1,1C982.6,146.6,979,145.5,981.7,144z"/>
	<path class="st0" d="M970.2,147.7c1-1,2.1-1.9,3.4-2.4c0.8,0.8,1.5,1.7,2.3,2.5c-2.8,0.9-5.6,1.5-8.6,1.5c0.9,1.3,1.7,2.6,2.5,3.9
		c-1.9,0.2-3.6-0.3-5.3-0.9c-0.2,0.5-0.7,1.4-1,1.8c-1.9,0-3.9,0-5.8,0c0.1-2.3,2.1-2.4,3.9-2.6c1.4-1.6,3.3-2.7,4.3-4.6
		C966.7,148.9,968.7,147.6,970.2,147.7z"/>
	<path class="st0" d="M981.2,150.5c1.4-1.1,2.9-1.9,4.7-2.1c-0.6,1.2-1.1,2.4-1.7,3.7c-0.6,0.1-1.9,0.2-2.6,0.3
		c-1.1,0.7-2.3,1.1-3.6,1.1c0.3-1.2,0.8-2.4,1.4-3.5C979.9,150.1,980.8,150.3,981.2,150.5z"/>
	<path class="st0" d="M989.7,150.3"/>
	<path class="st0" d="M974.1,152.4c0.8-0.6,1.5-1.2,2.3-1.7c0.8,1.4,1.3,2.8,1.4,4.4c-0.9-0.3-1.7-0.5-2.6-0.8
		c-1.1,3.5-4.5,1.6-6.8,0.6c0.2,3.1-2.4,4.3-4.8,5.2c-0.5-1.5-1.9-2.9-1.7-4.5c3.4,0.1,7.8-0.6,9.8-3.6
		C972.5,152.1,973.3,152.3,974.1,152.4z"/>
	<path class="st0" d="M982.3,156.6c3.7-1.4,6.9-3.9,10.9-4.5c0.9,1.8,1.3,3.6,1.2,5.6c-3.2,1.1-6.4,2.1-9.2,4
		c-1.9-0.1-3.8-0.1-5.7,0.1c-3.5-2-5.3,2.3-8.4,3.1c-0.1-1.4-0.2-2.7-0.3-4c2.1-0.7,4.3-1.5,6.5-2.2c-0.3-1-0.5-2-0.8-3
		C978.5,155.6,980.3,156.4,982.3,156.6z"/>
	<path class="st0" d="M971.8,167.3"/>
	<path class="st0" d="M973.8,167.1"/>
	<path class="st0" d="M982.5,169.4c1-1.3,2.1-2.8,3.8-3.3c0.9,1.5,2.6,2.6,3,4.4c-3.2,2.3-7.3,3.6-10.9,1.5c-0.2,1.8-1,3.4-2.1,4.8
		c-1.3-0.1-2.6-0.1-3.9-0.2c-1.2,1.2-2.4,2.3-3,3.8c-0.5,0-1.5,0-2.1,0c0.5-0.8,1.2-1.5,2.1-1.9c0-2.4,1.8-4.3,2.9-6.3
		c1,0.6,1.9,1.1,2.9,1.7c-0.2-0.5-0.7-1.5-0.9-2c1.5-1.5,3.3-2.7,5.2-3.7c0.3,1.2,0.5,2.5,0.6,3.8c2.4-0.2,4.5-1.4,6.4-2.9
		C985.2,169.3,983.8,169.4,982.5,169.4z"/>
	<path class="st0" d="M965.7,168.3c1.4-0.4,2,0.1,1.9,1.5C966.1,170.1,965.5,169.6,965.7,168.3z"/>
	<path class="st0" d="M963.9,170c1.4-0.4,1.9,0.1,1.6,1.5C964,171.9,963.5,171.4,963.9,170z"/>
	<path class="st0" d="M966.6,172.1c0.6-0.7,3.4-0.2,2.1,0.9C967.5,174.6,963.8,173.7,966.6,172.1z"/>
	<path class="st0" d="M960.8,174.3c1.2-1,1.9-0.8,2.1,0.5C961.7,175.8,961,175.6,960.8,174.3z"/>
	<path class="st0" d="M964.8,176.1"/>
	<path class="st0" d="M964.7,183.2c1.5-1.2,2.7,1.3,1.2,2.1C964.5,186.6,963.3,184,964.7,183.2z"/>
	<path class="st0" d="M966.7,187.2c1.9-0.4,3.7-1,5.5-1.8c-0.2,0.9-0.4,1.9-0.5,2.8c-2.3,0.7-4.5,1.5-6.5,2.8
		c-1.5-0.6-3.3-1.2-3.9-2.9c1.6,0.6,3.2,1.3,4.8,1.8C966.2,189.2,966.5,187.8,966.7,187.2z"/>
	<path class="st0" d="M977.7,192.2c2.4-1,5-1.7,7.4-2.9c-0.1,0.4-0.3,1.2-0.3,1.6c-0.7,0.9-1.3,1.7-1.9,2.6c-0.6,0-1.8-0.1-2.3-0.2
		c-0.4,1.6-1.5,2.3-3.3,2.1C977.3,194.6,977.5,193,977.7,192.2z"/>
	<path class="st0" d="M965.6,192.3c1-0.3,2.7,1,1.9,2C966.2,195.4,963.4,193.1,965.6,192.3z"/>
	<path class="st0" d="M970.7,193.2c0.4,0.1,1.3,0.4,1.8,0.6c2.1-1.2,4.7-0.5,4.2,2.4c-0.7,0-2.1,0.1-2.8,0.1c-0.3,0.4-1,1.1-1.4,1.5
		c-1,0-2.1-0.1-3.1-0.1c-0.2-0.8-0.4-1.6-0.6-2.3C969.4,194.7,970.1,193.9,970.7,193.2z"/>
	<path class="st0" d="M981.3,197.8c4.3-1.8,8.4-3.9,13-4.8c0,1.9,0,3.7,0.1,5.6c-3.3,2-7.7,1.9-10.2,5.1c-2.7-0.3-5.5-0.8-8.2-1.1
		c-1.6,0.7-3,1.7-4.5,2.6c-0.6-0.4-1.7-1.1-2.3-1.5c1.8-2.5,5.3-2.2,7.5-4.2c-0.7-0.2-2-0.6-2.6-0.9
		C976.2,196.5,978.8,197.6,981.3,197.8z"/>
	<path class="st0" d="M958.5,195.8c0-1.9,1.9-2,3.3-2.5c0.5,0.7,1.1,1.4,1.6,2.1C961.7,195.6,960.1,195.7,958.5,195.8z"/>
	<path class="st0" d="M961.3,197c2.1,0.5,4.1-0.3,6.1-0.9c0,3.2-2.7,5.1-5.6,5.3C961.8,199.9,961.6,198.5,961.3,197z"/>
	<path class="st0" d="M971.7,199.2"/>
	<path class="st0" d="M978.9,205.2"/>
	<path class="st0" d="M953.8,207.3c0.9-1.3,4-0.3,2.6,1.3C955.5,209.9,952.6,208.9,953.8,207.3z"/>
	<path class="st0" d="M983.3,207.6c1.8-0.1,3.4,0.4,4.4,1.9c-2,0.6-4.1,1.2-6.2,1.7C982,210,982.6,208.8,983.3,207.6z"/>
	<path class="st0" d="M950.9,208.3c1.5-0.6,1.8-0.2,1.1,1.3C950.6,210.1,950.2,209.7,950.9,208.3z"/>
	<path class="st0" d="M956.8,210.3"/>
	<path class="st0" d="M978,210.1c0.5,0.8,0.9,1.6,1.4,2.4c-2,0.9-4.1,1.7-6.2,2.4C973.6,212.3,975.8,211.1,978,210.1z"/>
	<path class="st0" d="M970.7,213.9c3.8-0.8,0,4.6-1,1.3C969.9,214.9,970.4,214.2,970.7,213.9z"/>
	<path class="st0" d="M947.7,215.1c1.7-1,2.2,1.5,0.5,1.8C946.5,217.9,946,215.4,947.7,215.1z"/>
	<path class="st0" d="M954.6,216c2.4-1.1,5.2-0.1,7.7-0.8c-0.2,0.4-0.7,1.1-0.9,1.5c-2.4,0.5-4.9,1-7.3,1.6
		C954.3,217.7,954.5,216.5,954.6,216z"/>
	<path class="st0" d="M939.5,216.2"/>
	<path class="st0" d="M941.7,218.7c-0.6-1.4-0.2-1.8,1.3-1.3C943.6,218.9,943.1,219.3,941.7,218.7z"/>
	<path class="st0" d="M957.8,219c0.7-0.7,3.5-0.1,2,1.1c-1.1,0.5-2.2,0.8-3.3,0.8C954.9,220.5,957.1,219.1,957.8,219z"/>
	<path class="st0" d="M966.7,221c1.4-0.4,1.9,0.1,1.7,1.5C967,222.9,966.4,222.4,966.7,221z"/>
	<path class="st0" d="M964.6,224.8c1.2,0.6,1.1,1.3-0.2,2.2C963.2,226.4,963.2,225.6,964.6,224.8z"/>
	<path class="st0" d="M965.5,229.9c0-2.3,2.8-1.9,4.3-2.4c0.2,0.6,0.6,1.7,0.8,2.3C968.9,230,967,231.2,965.5,229.9z"/>
	<path class="st0" d="M961.9,230.1"/>
	<path class="st0" d="M949.2,233.1c2.8-0.1,5.7-0.2,8.1-1.7c0.6,0.8,1.1,1.7,1.6,2.6c-2.4,0.7-4.8,0.8-7.2,0.8
		C950.8,234.1,950,233.6,949.2,233.1z"/>
	<path class="st0" d="M946,240.8c1.2-0.6,2.5-1.2,3.7-1.8c-1,2.8-4.5,2.3-6.9,3C943.3,240.2,944.6,240.3,946,240.8z"/>
	<path class="st0" d="M932.3,243.2c0.4-0.2,1.2-0.7,1.6-1c-0.1,3.4,3.5,1.6,4.8,0.1c2.2-1.3,2,2.6,2.7,3.8c-0.6-0.3-1.9-0.9-2.6-1.2
		c-0.5,0.1-1.5,0.2-2,0.2c-0.4,1-1.1,1.6-2.2,1.9c-0.2-0.7-0.5-1.9-0.6-2.6C933.7,244.2,932.8,243.5,932.3,243.2z"/>
	<path class="st0" d="M91.6,258.2"/>
	<path class="st0" d="M927.7,275.3"/>
	<path class="st0" d="M926.8,276.8c0.1,2,0.1,3.9,0.2,5.9c2.3-0.5,4.2-1.7,6.2-2.8c1,1.7,2,3.3,3,5c-1.9,1.6-3,3.7-3.7,6
		c-1,0.6-2.1,1.1-3.1,1.6c0.6,0.5,1.8,1.4,2.4,1.9c-1.1,1.3-4.9,3.8-1.6,4.8c0.3-0.7,0.8-2.2,1.1-2.9c0.5,0.4,1.4,1,1.9,1.4
		c0-0.6,0-1.8-0.1-2.4c1.6-1,3.2-2,4.3-3.6c0.6,0.1,1.9,0.3,2.5,0.4c-0.7,1.5-1.7,2.8-3.3,3.3c0.5,1.8,1.6,3.7,0.8,5.6
		c-0.8,0.9-1.8,1.6-2.7,2.4c0.3,0.3,0.8,1,1.1,1.3c2.5,0,4,2,4.8,4.1c-1.3,0.4-2.6,0.9-3.9,1.3c0,0.7-0.1,2-0.1,2.6
		c0.4-0.1,1.1-0.3,1.5-0.4c2.5,1.6,2.8-1.5,3.6-3.2c1,0.5,2,0.6,2.9-0.2c-0.7-1.3-1.5-2.6-2.2-3.9c1.4,0.1,2.9,0.2,4.3,0.3
		c-0.5,2-1.2,3.9-2,5.8c5.2-2.4,6.1-9.2,11.5-11.3c-0.1,1.6,0.6,2.9,2.1,3.7c0,1.6,0.1,3.3,0.1,4.9c-1.2,0.4-2,1.2-2.3,2.4
		c-0.7,0-2,0-2.7,0c0,2.6,0,5.2,0,7.7c-0.4,0.4-1.3,1.3-1.8,1.7c-0.2,1.4-0.1,2.9-0.6,4.3c-1.3,0.5-2.6-0.1-3.8-0.3
		c-0.1,0.7-0.3,2.1-0.4,2.8c-1.9,1-3.6-2.1-5.5,0.2c-0.5-0.4-1.5-1.3-2-1.7c-1.5,0.9-3,1.7-4.4,2.8c0.4,1.8,2.2,3,2.2,5
		c-0.9,0-2.6-0.1-3.4-0.1c-0.6,0.4-1.3,0.8-1.9,1.3c2.2-0.7,3.8,1.1,5.4,2.3c-1.2,0.5-2.3,0.9-3.5,1.3c2.3,2,3.3,5.2,5.9,6.9
		c0.9-0.2,1.8-0.3,2.8-0.6c2.7,1.9,4.1,4.9,6.2,7.3c1-0.6,2-1.2,3-1.7c-0.4,0.9-0.9,1.6-1.7,2.2c0.1,1.9,0.9,3.5,2.4,4.7
		c0.4-0.6,1.2-1.9,1.5-2.5c1.5,1.1,2.7,2.6,3.8,4.2c-0.7,0.6-1.5,1.2-2.2,1.8c-0.3,2.6-2,4-4.6,4c1,0.6,2,1.2,3.1,1.8
		c-1.1,1.2-2.2,2.4-3.2,3.7c1.7-0.5,3.1-2,5-1.4c-0.4-0.2-1.3-0.7-1.7-0.9c0.9-0.4,1.7-0.9,2.6-1.3c-0.5-0.2-1.5-0.5-2-0.7
		c0.2-1.7,2.5-2.4,3.6-3.5c0.1,0.6,0.3,1.9,0.4,2.6c1-0.7,2.1-1.3,3.1-2c-1,1-1.9,2.2-2.2,3.6c-0.5,0.2-1.5,0.6-2,0.7
		c1.6,2.5,0.6,5.2-1.5,7.1c1.2,0.6,2.5,1.2,3.7,2c1.6,2.1-1.9,2.8-2.4,4.6c0.9,0.3,1.9,0.6,2.8,0.9c0.7-1.6,1.5-3.1,3.5-3.1
		c-0.8-1.9-1.8-3.7-2.4-5.6c0.1-1.9,2-2.2,3.3-2.9c2.2-0.9,3.9-2.7,5.8-4.1c1.1,4.5-4.2,5.7-6.7,8.3c2.5,1.3,1.6,3.8,1,6
		c3.7-2.8,4.9-8.3,9.8-9.5c-0.2,0.5-0.5,1.5-0.6,2c1.8,0.7,3.6,1.5,4.8,3c-1.5,1.2-2.3,2.8-2.8,4.6c1-0.1,2.9-0.2,3.9-0.3
		c-3.2,2.9-6.8,5.3-9.9,8.2c0.5,1.5,1.1,3.2-0.1,4.6c-0.5-1.8-2.4-1.4-3.7-1.8c0.2,0.5,0.5,1.5,0.7,2.1c-1.2,0.2-2.6,1.2-3.7,0.1
		c-0.7,0.1-1.4,0.3-2,0.4c-0.3-0.4-0.9-1.3-1.3-1.8c-1.4,1.1-2.7,2.2-4,3.4c1.8,0.3,2.6,1.3,2.4,3.3c-0.9-0.1-2.6-0.3-3.4-0.4
		c0.4,0.5,1.3,1.4,1.7,1.9c-3.9,3.1-8.9,4.4-12.7,7.7c0.6,0,1.8-0.1,2.4-0.1c0.7-0.8,1.6-1.4,2.7-1.8c-0.2,2-0.5,4-0.8,5.9
		c-2.5-0.7-4.7-1.9-6.9-3.2c-0.5,0.2-1.4,0.6-1.9,0.8c0.8,1.2,1.4,2.5,1.7,4c-1.4-0.3-2.7-0.5-4-0.8c-0.7,1.6-1.3,3.3-1.6,5
		c-2.5,1.6-1.8,5.2-4.3,6.7c-1.5,1.1-2.4,2.9-3.9,4C926.8,377.7,926.8,327.2,926.8,276.8z"/>
	<path class="st0" d="M937.7,282c2.3-0.9,2,3.2,0,2.8C936.2,284.6,936.4,282.4,937.7,282z"/>
	<path class="st0" d="M935.7,287.1c0.7-0.7,3.3-0.2,2.1,1C936.6,289.7,933,288.7,935.7,287.1z"/>
	<path class="st0" d="M933.8,293c-0.6-1.7,2.2-3,3.5-2.5c0,0.3,0,0.9,0,1.1C936.3,292.3,935,293.8,933.8,293z"/>
	<path class="st0" d="M945.5,299c2.1-1.7,4-4.1,7-4.2c-0.2,1.9-1,3.6-2.2,5.1c-0.7,0.1-2,0.3-2.6,0.3c0.2,0.4,0.5,1.1,0.6,1.4
		c-1.7,0.3-4,0-3.7,2.5c-0.8,0.1-2.5,0.2-3.4,0.3c0-0.9,0-2.5,0-3.4c0.9-0.9,1.8-1.8,2.6-2.8C944.3,298.4,945.1,298.8,945.5,299z"/>
	<path class="st0" d="M938.7,298.3"/>
	<path class="st0" d="M979.5,377.4c1.4-0.4,1.9,0.2,1.5,1.6C979.7,379.3,979.2,378.8,979.5,377.4z"/>
	<path class="st0" d="M926.8,442.3c0.5-0.4,1.4-1.3,1.9-1.7c1.7,1.3,3.2,2.8,4.3,4.6c-1.1-0.5-2.3-0.9-3.5-1.1
		c1.7,3.7,5.5,6.7,6,10.9c-0.4,0.1-1.3,0.4-1.7,0.6c0.5,0.8,0.9,1.6,1.4,2.5c0-0.6,0.1-1.8,0.2-2.4c1.9,1,1.5,3.4,1.8,5.2
		c1.8,1.4,3.4,3,4.2,5.2c-0.9-5.3-3.9-9.9-5.5-15c5.2,3.5,6.2,10.4,8.3,15.9c3.9,10.2,5.2,21.3,3.4,32.1c-1.3,5.8-3.7,11.2-5.3,16.9
		c-1.1,0.1-2.2,0.1-3.3,0.2c-2.5,3-4.5,6.4-7.1,9.3c-0.8,2.6-2.1,5.1-2.7,7.8c-0.5-0.1-1.4-0.3-1.9-0.4c-0.1-2.1-0.1-4.3-0.3-6.4
		C926.7,498.3,926.8,470.3,926.8,442.3z"/>
	<path class="st0" d="M932.7,441.2"/>
	<path class="st0" d="M43.8,461.1c0.8-1.2,3.8-0.2,2.3,1.2C45.2,463.4,42.5,462.6,43.8,461.1z"/>
	<path class="st0" d="M67.9,463.1"/>
	<path class="st0" d="M41.7,473.2c2.1-2.7,6.6-1.7,8.9,0.6c-0.9,0.1-2.7,0.2-3.6,0.3c-0.1,0.6-0.2,1.9-0.3,2.5c-1-0.5-2.7-0.3-3-1.7
		c0.8-0.8,1.7-1.3,2.7-1.7C44.8,473.3,43.3,473.3,41.7,473.2z"/>
	<path class="st0" d="M105.3,473.2c2-2.5,2.4,1.9-0.2,1.5C105.2,474.3,105.3,473.6,105.3,473.2z"/>
	<path class="st0" d="M540.7,567"/>
	<path class="st0" d="M538.9,568.1c1.2,0.6,1.1,1.3-0.3,2.1C537.4,569.6,537.5,568.9,538.9,568.1z"/>
	<path class="st0" d="M525.9,571.4c1.5-0.1,3-0.1,4.6,0c2-0.6,3.9-1,6-1c-1.7,3.7-6.3,2.4-9.4,4l-0.7-0.2
		C526.3,573.4,526,572,525.9,571.4z"/>
	<path class="st0" d="M814.7,577.2"/>
	<path class="st0" d="M808.7,578.1"/>
	<path class="st0" d="M337.3,582c0.3-0.3,0.9-0.7,1.2-1c0,0.4,0.1,1.2,0.2,1.7l-0.9,0.1L337.3,582z"/>
	<path class="st0" d="M186.7,582.9c0.7-0.4,2.1-1.1,2.8-1.4c2,0.5,2.6,3,3.3,4.6c-0.6-0.2-1.9-0.6-2.5-0.8c-1.8,0.9-4.2,1.4-5.2,3.3
		c-1.9-0.7-3.8,1.8-5.4-0.1c-0.1-0.5-0.3-1.4-0.4-1.9l0.4-0.7l0.6-0.1c0.4-0.2,1.1-0.5,1.5-0.6c1-0.2,2-0.3,3.1-0.4
		c0.6,0.4,1.7,1.3,2.3,1.7C187.1,585.6,186.8,583.8,186.7,582.9z"/>
	<path class="st0" d="M283.7,585.8c0.2-1.6,2.6-1,3.7-0.7l0.2,0.2C286.3,586.4,285,586.5,283.7,585.8z"/>
	<path class="st0" d="M637,586c39,0,77.9-0.2,116.9,0.1c-0.3,0.3-0.9,0.8-1.2,1.1c-6.8,1.5-13.8,1.8-20.7,2.5
		c-1.4,0.1-2.4,1.1-3.4,1.9c-1.4-0.1-2.9-0.2-4.3-0.2c-0.3,0.6-0.8,1.8-1,2.4c-3.3,0-7,0.4-9.7-2c-5.3,1.2-10.7,2.6-15.1,5.9
		c-6.6,0.7-13.3,1.5-19.9,2.3c-8,0-15.9,1-23.9,1.5c-5.5,0.9-11.5,1.6-16.9-0.3c1.3-1.1,2.6-2.3,3.7-3.5c-1.5-0.2-2.7-0.8-3.7-1.7
		c0.6,0,1.7,0,2.3,0c0-2.1,0.1-4.2,0.2-6.2C638.4,589.4,637,588,637,586z"/>
	<path class="st0" d="M175.3,586.9c0.9,0,2.6,0,3.4-0.1c0,0.8-0.1,2.4-0.2,3.2c-2.1,0.7-4.1,1.4-6.1,2.3c0.4-1.4,0.7-2.9,1.1-4.3
		c0.9,0.4,1.8,0.8,2.7,1.2C176,588.5,175.5,587.4,175.3,586.9z"/>
	<path class="st0" d="M190.2,588.3c1.7-0.5,3.4-1,5.1-1.4c0.3,0.5,1.1,1.7,1.4,2.2c-1.7-0.2-3.4-0.4-5.1-0.6
		c-0.3,0.7-0.8,2.1-1.1,2.9c0.5,0.3,1.5,0.8,2,1.1c-0.8,0.1-2.4,0.5-3.2,0.6c0.3-0.5,0.8-1.5,1.1-2c-1.2-1-2.4-2-3.6-3.1
		C187.9,588.1,189,588.2,190.2,588.3z"/>
	<path class="st0" d="M167.7,589.1"/>
	<path class="st0" d="M200.8,589.1"/>
	<path class="st0" d="M345.7,589.3c0.9-1.2,4-0.2,2.7,1.4C347.4,591.9,344.4,590.9,345.7,589.3z"/>
	<path class="st0" d="M291.8,592.8c-1-1,0.3-3.3,1.6-2.4C294.5,591.4,293.2,593.8,291.8,592.8z"/>
	<path class="st0" d="M343.8,590.2"/>
	<path class="st0" d="M353.8,590.3"/>
	<path class="st0" d="M257.6,590.6c1.9,0.5,3.8,0.7,5.8,0.6c0.2,0.3,0.7,1,1,1.3c-1.7,0.8-3.4,1.6-5,2.6c-0.2,0.5-0.6,1.5-0.8,2
		C255.8,596.3,258.6,592.6,257.6,590.6z"/>
	<path class="st0" d="M268.5,591.1c1-0.7,3.5-1,3.7,0.6C271.4,592.8,266,593.5,268.5,591.1z"/>
	<path class="st0" d="M330.1,592.1c1.6-0.6,3.3-1.2,5-1.7C335.1,593.1,331,595.7,330.1,592.1z"/>
	<path class="st0" d="M338.8,591.2c1.2-0.9,2-0.8,2.3,0.5C339.9,592.6,339.1,592.4,338.8,591.2z"/>
	<path class="st0" d="M142.7,593.3"/>
	<path class="st0" d="M279.8,593.1"/>
	<path class="st0" d="M324.7,594.2c1.5-0.4,2.9-0.7,4.4-1c-0.3,1-0.6,2-0.9,3.1C326.9,595.9,325.5,595.4,324.7,594.2z"/>
	<path class="st0" d="M233.7,593.6c1.2,0.8,1.7,2.1,1.4,3.5c1.6,1,3.3,2,5.2,2.3c1.6-1,3.2-1.9,4.8-2.9c1.3,0.5,2.5,1.1,2.7,2.7
		c-2.4-1.1-4.8-0.8-6.1,1.6c0.8,0,2.3,0.1,3,0.2l-0.1,1.1c-0.8-0.2-2.5-0.5-3.3-0.7c0.4,2.2-1.1,2.8-3,2.9c0-0.8-0.1-2.4-0.1-3.3
		c-2.3,2.5-5.3,3.9-8.1,5.7c-2.2-0.1-4.3,0.4-6.4,0.9c-0.6-2,2-2.5,3.1-3.7c-2.8-1.5-5.4,2.8-8.5,0.9c1.9-2.1,5-2.3,6.8-4.4
		c-0.2-0.4-0.5-1.2-0.7-1.5c1.5-0.2,3.1-0.3,4.6-0.5c-0.3,1.7-1.3,3.2-2.4,4.5c2.1,0.7,4.8,0,6.3-1.7c0.7-0.2,2.1-0.5,2.9-0.6
		C233.6,598.9,232.1,596.4,233.7,593.6z"/>
	<path class="st0" d="M286.8,594.2"/>
	<path class="st0" d="M265.3,596.2c1.2-0.3,2.5-0.5,3.7-0.8c0.1,1.3,0.1,2.5,0.2,3.8C267.9,598.3,266.6,597.2,265.3,596.2z"/>
	<path class="st0" d="M287.8,596.3"/>
	<path class="st0" d="M318.5,596.9c0.1-1.5,3-2,3.1-0.3C321.3,597.8,318.8,598.4,318.5,596.9z"/>
	<path class="st0" d="M248.6,597.5c1.4-0.4,1.9,0.1,1.5,1.5C248.6,599.4,248.1,598.9,248.6,597.5z"/>
	<path class="st0" d="M278.3,598.2c1-0.5,2-1,3-1.5c0,0.9,0,2.7,0,3.6C279.7,600.5,278.8,599.6,278.3,598.2z"/>
	<path class="st0" d="M203.8,598.2c0.7-1.2,3.4-0.3,1.9,1C205,600.3,202.5,599.6,203.8,598.2z"/>
	<path class="st0" d="M208.5,602c-0.1-3.1,3.8-3.9,6.1-4.7c0.4,1.3,0.8,2.5,1.3,3.8C213.4,599.1,211,601.3,208.5,602z"/>
	<path class="st0" d="M327,601.3c1.9-1.6,4.2-2.5,6.4-3.6c-0.4,0.5-1.1,1.5-1.4,2.1c1.3,0.3,2.7,0.6,4.1,0.9
		c0.9-0.7,1.8-1.4,2.6-2.1c0.7,0.7,1.5,1.5,2.2,2.2c-1.4,0.5-2.9,1-4.3,1.5c0.4,1,0.8,1.9,1.1,2.9c-1.9-0.3-3.8-1.9-5.7-0.6
		c-3.9,2.3-8.4,3.4-12.7,4.7c-1-0.8-2-1.7-3-2.5C319.2,603.9,323.2,602.5,327,601.3z"/>
	<path class="st0" d="M189.7,599.2"/>
	<path class="st0" d="M316.9,599.2c3.2-0.3-0.5,4.2-2.2,2.7C314.3,600.6,315.9,599.6,316.9,599.2z"/>
	<path class="st0" d="M255.8,600.3"/>
	<path class="st0" d="M197.4,605c1.4-3.2,5.8-2.6,8.6-3.4C204.2,604.5,200.3,604.3,197.4,605z"/>
	<path class="st0" d="M344.5,603c0.9-0.3,1.8-0.7,2.7-1c0.6,1,1.1,2,1.7,3c-1.5,0.3-3.1,0.7-4.6,1.1
		C344.4,605.3,344.5,603.8,344.5,603z"/>
	<path class="st0" d="M312.8,603.2"/>
	<path class="st0" d="M185.8,605.5c2.3,0.4,4.3-1.3,6.5-1.3c0.5,3.1-2.9,3.8-5,4.8C185.2,609.1,185.8,606.8,185.8,605.5z"/>
	<path class="st0" d="M201.4,605.1"/>
	<path class="st0" d="M337.8,606.8c0.9-0.8,1.8-1.6,2.8-2.3c1.2,0.5,2.3,1,3.5,1.5c-0.2,0.6-0.5,1.8-0.7,2.4
		c-1.3-0.4-2.6-0.2-3.7,0.5C339.1,608.3,338.2,607.3,337.8,606.8z"/>
	<path class="st0" d="M423.7,605.3"/>
	<path class="st0" d="M425.6,605.3"/>
	<path class="st0" d="M304.7,607.3"/>
	<path class="st0" d="M333.4,607.9c1.6-0.7,5.3-2.5,4.2,0.9c-1.7,0.8-3.5,1.4-5.3,2.1C332.7,610,333.1,609,333.4,607.9z"/>
	<path class="st0" d="M344.9,607.2c1.1-0.7,3,0.2,2.9,1.6C347.2,610.8,343.9,608.7,344.9,607.2z"/>
	<path class="st0" d="M348.9,607.2c1.3-0.9,2.1-0.7,2.3,0.5C349.9,608.7,349.1,608.5,348.9,607.2z"/>
	<path class="st0" d="M420.7,609.1c2.1-1.5,4.6-2.2,7.1-2.6c0.1,0.6,0.2,1.9,0.2,2.5c-2.3-0.9-4.8-0.1-6.7,1.4
		c0.3,0.3,0.9,1,1.3,1.3c-0.4,0.2-1.2,0.7-1.6,0.9C420.9,611.5,420.8,610.3,420.7,609.1z"/>
	<path class="st0" d="M180,608.4c1.4,0.2,2.8,0.5,4.2,1.1c-3,0.2-6.4,4.5-8.8,1C176.9,609.8,178.4,609.2,180,608.4z"/>
	<path class="st0" d="M393.6,608"/>
	<path class="st0" d="M403.6,608.2"/>
	<path class="st0" d="M392.8,611.9c1.7-1.4,3.6-2.5,5.7-3.2c0.3,1,0.6,2,1,3.1c1,0.5,1.9,1.1,2.9,1.6c0-0.9,0-2.8,0-3.7
		c1.8,0.2,3.7,0.3,5.5,0.6c-1.6,1.6-4.2,2.4-4.8,4.8c-0.7-0.5-1.4-1.1-2.1-1.6c-0.6,0.5-1.7,1.6-2.2,2.1c-0.8-1.1-1.6-2.2-2.4-3.3
		C395.4,612.1,393.7,611.9,392.8,611.9z"/>
	<path class="st0" d="M411.6,610"/>
	<path class="st0" d="M359.8,611.1"/>
	<path class="st0" d="M409.8,611.1"/>
	<path class="st0" d="M425.8,612.3"/>
	<path class="st0" d="M190.7,613.4c0.9-1.4,3.6-0.2,2.4,1.4C192.2,616.3,189.3,614.9,190.7,613.4z"/>
	<path class="st0" d="M392.5,616.6c-0.3-0.8-0.6-1.5-0.9-2.3c1.8,0.6,3.8,0.9,5,2.4C395.3,616.3,393.8,616.2,392.5,616.6z"/>
	<path class="st0" d="M375.6,616.1c0.8-1.3,4.1-0.4,2.7,1.3C377.4,618.5,374.4,617.8,375.6,616.1z"/>
</g>
<g>
	<path class="st1" d="M444.5,62.1c7.5-1.6,15.3-0.5,22.9-0.8c43,0.5,86,0.1,129,0.2c85.7,0,171.3,0,257,0
		c20.5-0.8,41.1-0.5,61.6-0.2l-0.5,1.7c0.6-0.3,2-0.9,2.6-1.2l-0.5,2.3c1.3-0.9,2.7-1.8,4-2.7c0.2,0.3,0.7,1,1,1.3
		c0.2-0.1,0.5-0.2,0.7-0.2c0.5-0.2,1.5-0.5,2-0.7c0.7-0.1,2-0.3,2.7-0.4l-0.5,1.5c-1.1,0.5-2.1,1.1-3.1,1.7l0.2,0.5
		c0.3,0.4,0.8,1.4,1,1.8c-1.9,2.2-4.2-0.1-6.3-0.7c-1.3,0.4-2.7,0.9-4,1.3c0.2-0.8,0.6-2.3,0.9-3.1c-1.4,0.4-2-0.5-2.5-1.5l-1.5,0.5
		c1,1.1,1.6,2.4,2.3,3.7c-16.3,0.4-32.5,0.3-48.8,0.2c-5.4-0.4-10.8-0.2-16.3-0.3c-106.7,0-213.3,0-320,0
		c-23.8,0.2-47.7-0.4-71.5,0.3c-4,0-8-0.3-12.1-0.5c0-0.4-0.1-1.3-0.1-1.8c-1.8,0.7-3.6,1.3-5.4,2c0.6-1.6,1.7-2.9,3.2-3.7
		C443.1,62.9,444,62.4,444.5,62.1z"/>
	<path class="st1" d="M105.1,61.6c41.3,0,82.5,0.1,123.8,0l-1.4,2.4c1.7-0.6,3.4-1.3,5-2c-1.8,1.2-3.7,2.4-5.6,3.4
		c0-0.7,0.1-2,0.1-2.7c-4.8,0.7-8.8,4.1-13.8,4c-34.3-0.1-68.7,0-103,0c-0.1,13.4-0.1,26.8,0.2,40.2c-0.4,23.7-0.1,47.4-0.2,71.1
		c0.1,27-0.2,53.9,0.2,80.9c-0.5,13.3,0.5,26.7-0.3,40c-0.1,0.4-0.4,1.3-0.5,1.7c-1.5,0.7-3,1.3-4.6,1.9
		c-0.3-15.5-0.7-30.9-0.2-46.4c0.3-46.7,0-93.4,0.1-140.2c0-2.3,0-4.7-0.1-7C105.1,93.2,105.1,77.4,105.1,61.6z"/>
	<path class="st1" d="M348.6,62.4"/>
	<path class="st1" d="M341.4,63c2-0.6,4.5,1.1,3.5,3.4C343.3,65.7,341,65.3,341.4,63z"/>
	<path class="st1" d="M924.9,65.8l1.8,0.1c0,2.7,0.1,5.4,0.3,8.1c-0.4,0.2-1.3,0.7-1.7,0.9c-0.3-0.5-0.8-1.6-1-2.2
		c0.8-0.7,1.2-1.5,1.3-2.5c-1.4,0.4-2.8,0.8-4.2,1.2c-0.8-2.8,2.3-2.9,4.1-3.8C925.2,67.3,925,66.3,924.9,65.8z"/>
	<path class="st1" d="M921.1,219.8c1.5-0.4,2.9-0.9,4.4-1.3c2,1.1,0.9,3.7-0.8,4.5c0.1,1.3,0.4,2.7-0.8,3.6c-0.9-1.7-2-3.2-2.4-5.1
		C921.5,221.1,921.2,220.2,921.1,219.8z"/>
	<path class="st1" d="M922.5,246.2c0.4,0,1.2-0.1,1.7-0.2l0.1,0.8l-0.8,0.4C923.3,246.9,922.7,246.4,922.5,246.2z"/>
	<path class="st1" d="M921.4,256.1c1.1-0.7,2.1-1.5,3.3-2.2c2.2-2.3,2.1,1.9,2.1,3c0.1,6.6,0.1,13.2,0,19.8c0,50.5,0,101,0,151.4
		c0,4.7,0.2,9.4,0,14.1c0,28-0.1,56,0,84c-0.4,6.1,0,12.2,0.4,18.2c-3.6,0.4-0.1,3.5-0.1,5.5c0.1,12.2-0.2,24.4,0.1,36.5
		c-32.2-0.1-64.5,0.5-96.7,0c-25.5-0.1-51.1-0.5-76.6-0.5c-39-0.2-78-0.1-116.9-0.1c-48.2,0.1-96.4,0.1-144.6,0
		c-0.3-1-0.6-1.9-0.7-2.9l0.9-0.3c2.5-0.3,4.3-2.5,7-2c15.6,0,31.1-0.3,46.7-0.1c7,0,14,0.1,20.9-0.1c23.7-0.3,47.4,0.3,71,0
		c51,0.2,102,0.1,153,0c43.2-1.1,86.4-0.5,129.7-0.3c0.2-14.1-0.3-28.1,0.3-42.1c0.5-28.7,0.1-57.5,0.2-86.2c0-45.7,0-91.3,0-137
		c-0.2-14.8,0.3-29.5-0.3-44.3v-0.6c0-0.5,0.1-1.4,0.2-1.9C921.4,264.3,921.4,260.2,921.4,256.1z"/>
	<path class="st1" d="M106,303.5c0.7-0.2,2.1-0.5,2.8-0.7c-0.3,1.7-0.7,3.4-1,5.1c-1,0.5-2.1,1-3.1,1.6c0.2-1.3,0.3-2.5,0.5-3.7
		C105.4,305.2,105.8,304.1,106,303.5z"/>
	<path class="st1" d="M105.2,471c1,0,2,0,3,0c0.9,2.3,2.2,4.5,2,7c-0.1,34.2,0.1,68.3-0.1,102.5c13.4,0.5,26.9-0.1,40.3,0.3
		l-0.7,0.5c-1.8,1-3.8,1.7-5.1,3.3l1.6,0.5c-0.7,0.5-1.5,0.8-2.3,0.9c-12.9-0.1-25.9-0.1-38.8-0.1c0.1-37.1,0-74.2-0.1-111.3
		c2.6,0.5,2.2-4,0.2-1.5c0,0.4-0.1,1.1-0.2,1.5C104.9,473.5,105.2,472.2,105.2,471z"/>
	<path class="st1" d="M315.2,580.7c9.1-0.1,18.2,0.4,27.3-0.2c-0.4,0.3-1.3,0.8-1.8,1.1c-0.6-0.2-1.7-0.5-2.2-0.6
		c-0.3,0.3-0.9,0.7-1.2,1l0.4,0.7l0.9-0.1l0.8,0.1c0.5,0.4,1.4,1.3,1.8,1.8c0.2-0.3,0.6-1,0.8-1.3c1,0.9,2,1.8,3.1,2.5
		c1.1-0.6,2.3-1.1,3.4-1.7c-0.4,0.3-1.3,0.8-1.7,1.1l-1,0.7c0,0.5,0.1,1.5,0.1,2.1c-0.1-0.5-0.4-1.5-0.5-1.9
		c-2.6-0.3-5.2-1.3-7.9-0.7c-0.4-0.3-1.3-1-1.8-1.3c0,0.5,0.2,1.6,0.2,2.1c-11.1,0-22.2,0-33.4,0l0.4-0.5c1-1.4,1.9-2.9,2.8-4.4
		c0.3,2.4,2.3,2.7,4.2,2.9c0.6-1.2,1.3-2.4,2-3.6c1.1,1.3,2.2,2.6,3.4,3.8C315.2,583.4,315.2,581.6,315.2,580.7z"/>
	<path class="st1" d="M153.5,581c3.1-0.6,6.2-0.3,9.3-0.1l-0.9,0.8c-2.5,1.1-4.9,2.3-7.2,3.7l-0.3-1.4c-0.1,0.5-0.4,1.6-0.5,2.1
		c-2.7-0.3-5.4-0.2-8.1,0.1C148,584,150.5,582,153.5,581z"/>
	<path class="st1" d="M176.8,582.7c1.7-0.9,3.5-1.9,5.5-1.9c2.6-0.1,5.3,0,8,0.1l-0.8,0.7c-0.7,0.3-2.1,1-2.8,1.4
		c0.1,0.9,0.3,2.7,0.4,3.6c-0.6-0.4-1.7-1.3-2.3-1.7c0.1-0.6,0.2-1.9,0.3-2.6c-1.1-0.1-2.1-0.1-3.2-0.2c0,1.1-0.1,2.1-0.2,3.2
		c-0.4,0.2-1.1,0.5-1.5,0.6l-0.6,0.1c-0.3-1-0.2-2,0.5-3c-0.7,0-2,0-2.7,0L176.8,582.7z"/>
	<path class="st1" d="M201.9,580.7c2,0,4.1,0.1,6.1,0.2c-0.3,0.7-1,2-1.3,2.7C205,582.8,202.2,583,201.9,580.7z"/>
	<path class="st1" d="M287.2,581.9c1-0.4,2-0.6,3.1-0.6c3.1,0,1.1,3.4,1.2,5.2c-1-0.3-2.9-0.9-3.9-1.2l-0.2-0.2
		c1.1-0.3,2.2-0.6,3.3-0.9C289.2,584.4,284.8,584.1,287.2,581.9z"/>
	<path class="st1" d="M293.6,581.2l0.5-0.3c0.8,0.1,2.4,0.3,3.2,0.4c-0.3,0.2-0.9,0.6-1.1,0.8c-0.6,0-1.7,0.1-2.3,0.2
		C293.8,582,293.6,581.5,293.6,581.2z"/>
	<path class="st1" d="M358.1,581.3c2.4-0.2,4.8-0.4,7.2-0.5c-0.6,0.4-1.9,1.3-2.5,1.7c0,0.7-0.1,2.2-0.2,2.9
		c-1.2-0.8-2.3-1.7-3.5-2.5c-1.7,1.3-3.4,2.6-5.4,3.3c-0.5-0.3-1.4-0.8-1.9-1C354.4,584.5,356.7,583.3,358.1,581.3z"/>
	<path class="st1" d="M384.7,581.2c0.7-0.1,2.1-0.4,2.9-0.6c-1.5,2.5-4.3,3.6-6.9,4.5c-0.7,0.1-2,0.3-2.7,0.3
		c1.2-1.3,2.6-2.6,3.4-4.2c0.6,0,1.8,0.1,2.4,0.2L384.7,581.2z"/>
	<path class="st1" d="M197.3,582.1c0.7,0.3,2.1,1,2.8,1.3l-0.3,0.1l-1.9,0.6c0.4,0.5,1.2,1.5,1.6,1.9c-2.1,0-4.3,0.1-6.4,0
		c-0.1-0.8-0.3-2.4-0.5-3.2c0.6,0.5,1.8,1.5,2.4,2C195.8,583.9,196.5,583,197.3,582.1z"/>
	<path class="st1" d="M368.7,583.5c1.2-1,2.6-1.8,4.3-1.7c0.5,1.2,1,2.5,1.5,3.7l0.4,0.9c-2-0.1-2.5-1.8-2.7-3.5
		c-0.4,0.3-1.3,0.8-1.7,1.1c0.4,0.5,1.3,1.7,1.7,2.2l-1.4-0.4C370.2,585.2,369.2,584.1,368.7,583.5z"/>
	<path class="st1" d="M256.9,582.3c0.9,0.4,1.7,1.1,2.2,2c1.8,0.1,3.6,0.5,5.3,1.1c-0.8,0.2-2.3,0.5-3.1,0.6
		c-1.6,0.1-3.3,0.1-4.9,0.1C255.8,584.8,256.1,583.4,256.9,582.3z"/>
	<path class="st1" d="M169.6,585.8c1.4-0.6,2.8-1.2,4.2-1.8c0.3,0.1,0.9,0.3,1.2,0.5c0.2,0.4,0.5,1.1,0.7,1.5
		C173.6,585.9,171.6,585.7,169.6,585.8z"/>
</g>
</svg>
