<?xml version="1.0" encoding="utf-8"?>
<!-- Generator: Adobe Illustrator 19.1.0, SVG Export Plug-In . SVG Version: 6.00 Build 0)  -->
<svg version="1.1" id="Layer_1" xmlns="http://www.w3.org/2000/svg" xmlns:xlink="http://www.w3.org/1999/xlink" x="0px" y="0px"
	 viewBox="0 0 304 223.7" style="enable-background:new 0 0 304 223.7;" xml:space="preserve">
<style type="text/css">
	.st0{fill:#474142;}
	.st1{fill:#FFFFFF;}
	.st2{fill:url(#SVGID_1_);}
	.st3{fill:url(#SVGID_2_);}
	.st4{fill:url(#SVGID_3_);}
	.st5{fill:url(#SVGID_4_);}
	.st6{fill:url(#SVGID_5_);}
	.st7{fill:url(#SVGID_6_);}
	.st8{fill:url(#SVGID_7_);}
	.st9{fill:url(#SVGID_8_);}
	.st10{opacity:0.7;}
	.st11{opacity:0;}
	.st12{opacity:2.439100e-002;}
	.st13{opacity:4.878100e-002;}
	.st14{opacity:7.317100e-002;}
	.st15{opacity:9.756100e-002;}
	.st16{opacity:0.122;}
	.st17{opacity:0.1463;}
	.st18{opacity:0.1707;}
	.st19{opacity:0.1951;}
	.st20{opacity:0.2195;}
	.st21{opacity:0.2439;}
	.st22{opacity:0.2683;}
	.st23{opacity:0.2927;}
	.st24{opacity:0.3171;}
	.st25{opacity:0.3415;}
	.st26{opacity:0.3659;}
	.st27{opacity:0.3902;}
	.st28{opacity:0.4146;}
	.st29{opacity:0.439;}
	.st30{opacity:0.4634;}
	.st31{opacity:0.4878;}
	.st32{opacity:0.5122;}
	.st33{opacity:0.5366;}
	.st34{opacity:0.561;}
	.st35{opacity:0.5854;}
	.st36{opacity:0.6098;}
	.st37{opacity:0.6341;}
	.st38{opacity:0.6585;}
	.st39{opacity:0.6829;}
	.st40{opacity:0.7073;}
	.st41{opacity:0.7317;}
	.st42{opacity:0.7561;}
	.st43{opacity:0.7805;}
	.st44{opacity:0.8049;}
	.st45{opacity:0.8293;}
	.st46{opacity:0.8537;}
	.st47{opacity:0.878;}
	.st48{opacity:0.9024;}
	.st49{opacity:0.9268;}
	.st50{opacity:0.9512;}
	.st51{opacity:0.9756;}
	.st52{fill:url(#SVGID_9_);}
	.st53{fill:url(#SVGID_10_);}
	.st54{fill:url(#SVGID_11_);}
	.st55{fill:url(#SVGID_12_);}
	.st56{fill:url(#SVGID_13_);}
	.st57{fill:url(#SVGID_14_);}
	.st58{fill:url(#SVGID_15_);}
	.st59{fill:url(#SVGID_16_);}
	.st60{fill:url(#SVGID_17_);}
	.st61{fill:url(#SVGID_18_);}
	.st62{fill:url(#SVGID_19_);}
	.st63{fill:url(#SVGID_20_);}
</style>
<g>
	<g>
		<g>
			<g>
				<polygon points="0,111.7 294.5,223.4 198.2,111.5 294.7,0.6 				"/>
				<polygon class="st0" points="294.5,223.4 198.4,111.7 294.7,0.6 123.4,111.7 				"/>
				<polygon class="st1" points="0,111.7 123.4,111.7 294.7,0.6 				"/>
			</g>
			
				<radialGradient id="SVGID_1_" cx="-921.9358" cy="-47.4202" r="86.9859" gradientTransform="matrix(0 0.6388 0.7162 0 178.1072 682.7085)" gradientUnits="userSpaceOnUse">
				<stop  offset="0" style="stop-color:#A7A9AC"/>
				<stop  offset="1" style="stop-color:#808285"/>
			</radialGradient>
			<polygon class="st2" points="198.4,111.7 123.4,111.7 294.5,223.4 			"/>
			
				<radialGradient id="SVGID_2_" cx="-27.4609" cy="-47.4202" r="86.9859" gradientTransform="matrix(0 -0.6388 0.7162 0 178.1072 112.5152)" gradientUnits="userSpaceOnUse">
				<stop  offset="0" style="stop-color:#A7A9AC"/>
				<stop  offset="1" style="stop-color:#808285"/>
			</radialGradient>
			<polygon class="st3" points="198.4,112.1 123.4,112.1 294.5,0.4 			"/>
		</g>
		<g>
			<g>
				<polygon points="0,111.7 294.5,223.4 198.2,111.5 294.7,0.6 				"/>
				<polygon class="st0" points="294.5,223.4 198.4,111.7 294.7,0.6 123.4,111.7 				"/>
				<polygon class="st1" points="0,111.7 123.4,111.7 294.7,0.6 				"/>
			</g>
			
				<radialGradient id="SVGID_3_" cx="-921.9358" cy="-47.4202" r="86.9859" gradientTransform="matrix(0 0.6388 0.7162 0 178.1072 682.7085)" gradientUnits="userSpaceOnUse">
				<stop  offset="0" style="stop-color:#A7A9AC"/>
				<stop  offset="1" style="stop-color:#808285"/>
			</radialGradient>
			<polygon class="st4" points="198.4,111.7 123.4,111.7 294.5,223.4 			"/>
			
				<radialGradient id="SVGID_4_" cx="-26.5449" cy="-47.3187" r="86.7897" gradientTransform="matrix(0 -0.6388 0.7162 0 178.1072 112.5152)" gradientUnits="userSpaceOnUse">
				<stop  offset="0" style="stop-color:#A7A9AC"/>
				<stop  offset="1" style="stop-color:#808285"/>
			</radialGradient>
			<polygon class="st5" points="198.5,111.6 123.4,111.7 294.8,0.7 			"/>
		</g>
		<g>
			<g>
				<polygon points="0,111.7 294.5,223.4 198.2,111.5 294.7,0.6 				"/>
				<polygon class="st0" points="294.5,223.4 198.4,111.7 294.7,0.6 123.4,111.7 				"/>
				
					<radialGradient id="SVGID_5_" cx="-165.7244" cy="403.9203" r="232.8928" gradientTransform="matrix(0 -0.6388 -0.7162 0 295.3118 26.6011)" gradientUnits="userSpaceOnUse">
					<stop  offset="0" style="stop-color:#FFFFFF"/>
					<stop  offset="1" style="stop-color:#D8D9DA"/>
				</radialGradient>
				<polygon class="st6" points="0,111.7 123.4,111.7 294.7,0.6 				"/>
			</g>
			
				<radialGradient id="SVGID_6_" cx="-921.9358" cy="-47.4202" r="86.9859" gradientTransform="matrix(0 0.6388 0.7162 0 178.1072 682.7085)" gradientUnits="userSpaceOnUse">
				<stop  offset="0" style="stop-color:#A7A9AC"/>
				<stop  offset="1" style="stop-color:#808285"/>
			</radialGradient>
			<polygon class="st7" points="198.4,111.7 123.4,111.7 294.5,223.4 			"/>
			
				<radialGradient id="SVGID_7_" cx="-26.5449" cy="-47.3187" r="86.7897" gradientTransform="matrix(0 -0.6388 0.7162 0 178.1072 112.5152)" gradientUnits="userSpaceOnUse">
				<stop  offset="0" style="stop-color:#D8D9DA"/>
				<stop  offset="1" style="stop-color:#D8D9DA"/>
			</radialGradient>
			<polygon class="st8" points="198.5,111.6 123.4,111.7 294.8,0.7 			"/>
		</g>
	</g>
	
		<linearGradient id="SVGID_8_" gradientUnits="userSpaceOnUse" x1="-83.1057" y1="147.0211" x2="9.3326" y2="368.3861" gradientTransform="matrix(0 -1 -1 0 378.5069 99.4698)">
		<stop  offset="0" style="stop-color:#000000"/>
		<stop  offset="0.1144" style="stop-color:#121212"/>
		<stop  offset="0.2386" style="stop-color:#333233"/>
		<stop  offset="0.3676" style="stop-color:#4E4E50"/>
		<stop  offset="0.4997" style="stop-color:#68696B"/>
		<stop  offset="0.6345" style="stop-color:#85878A"/>
		<stop  offset="0.7712" style="stop-color:#AAACAF"/>
		<stop  offset="0.9071" style="stop-color:#D8D9DB"/>
		<stop  offset="1" style="stop-color:#FFFFFF"/>
	</linearGradient>
	<polygon class="st9" points="123.4,111.7 293.9,223.5 0,111.7 	"/>
</g>
<g>
	<g class="st10">
		<polygon class="st11" points="230.7,41.8 230.6,42 230.8,41.9 230.8,42 230.8,41.9 212.4,79.9 197,111.9 230.7,182 127,111.8 
			230.4,42.2 		"/>
		<polygon class="st12" points="232.5,40.8 232.4,41 232.6,40.9 232.6,41 232.6,40.9 213.9,79.4 198.3,111.9 232.5,183 127.3,111.8 
			232.2,41.2 		"/>
		<polygon class="st13" points="234.3,39.8 234.2,40 234.4,39.9 234.3,40 234.4,39.9 215.4,79 199.6,111.9 234.3,184 127.6,111.8 
			234,40.2 		"/>
		<polygon class="st14" points="236.1,38.8 236,39 236.2,38.9 236.1,39 236.2,38.9 217,78.5 200.9,111.9 236.1,185.1 127.9,111.8 
			235.8,39.2 		"/>
		<polygon class="st15" points="237.9,37.8 237.8,38 238,37.9 237.9,38 238,37.9 218.5,78 202.2,111.9 237.9,186.1 128.2,111.8 
			237.5,38.2 		"/>
		<polygon class="st16" points="239.7,36.8 239.5,37 239.7,36.9 239.7,37 239.8,36.9 220,77.6 203.5,111.9 239.7,187.1 128.5,111.8 
			239.3,37.2 		"/>
		<polygon class="st17" points="241.4,35.8 241.3,36 241.5,35.9 241.5,36 241.5,35.9 221.5,77.1 204.7,111.9 241.4,188.1 
			128.8,111.8 241.1,36.2 		"/>
		<polygon class="st18" points="243.2,34.7 243.1,35 243.3,34.9 243.3,35 243.3,34.9 223,76.7 206,111.9 243.2,189.1 129.1,111.8 
			242.9,35.2 		"/>
		<polygon class="st19" points="245,33.7 244.9,34 245.1,33.9 245.1,34 245.1,33.9 224.6,76.2 207.3,111.9 245,190.1 129.4,111.8 
			244.7,34.2 		"/>
		<polygon class="st20" points="246.8,32.7 246.7,33 246.9,32.8 246.8,33 246.9,32.9 226.1,75.7 208.6,111.9 246.8,191.1 
			129.6,111.8 246.4,33.1 		"/>
		<polygon class="st21" points="248.6,31.7 248.5,32 248.7,31.8 248.6,31.9 248.7,31.9 227.6,75.3 209.9,111.9 248.6,192.1 
			129.9,111.8 248.2,32.1 		"/>
		<polygon class="st22" points="250.4,30.7 250.2,31 250.5,30.8 250.4,30.9 250.5,30.9 229.1,74.8 211.2,111.9 250.4,193.1 
			130.2,111.8 250,31.1 		"/>
		<polygon class="st23" points="252.1,29.7 252,30 252.2,29.8 252.2,29.9 252.3,29.8 230.6,74.4 212.5,111.9 252.2,194.1 
			130.5,111.8 251.8,30.1 		"/>
		<polygon class="st24" points="253.9,28.7 253.8,29 254,28.8 254,28.9 254,28.8 232.2,73.9 213.8,111.9 253.9,195.1 130.8,111.8 
			253.6,29.1 		"/>
		<polygon class="st25" points="255.7,27.7 255.6,28 255.8,27.8 255.8,27.9 255.8,27.8 233.7,73.4 215.1,111.9 255.7,196.2 
			131.1,111.8 255.3,28.1 		"/>
		<polygon class="st26" points="257.5,26.7 257.4,27 257.6,26.8 257.5,26.9 257.6,26.8 235.2,73 216.4,111.9 257.5,197.2 
			131.4,111.7 257.1,27.1 		"/>
		<polygon class="st27" points="259.3,25.7 259.1,26 259.4,25.8 259.3,25.9 259.4,25.8 236.7,72.5 217.7,111.9 259.3,198.2 
			131.7,111.7 258.9,26.1 		"/>
		<polygon class="st28" points="261.1,24.7 260.9,24.9 261.2,24.8 261.1,24.9 261.2,24.8 238.2,72 219,111.9 261.1,199.2 132,111.7 
			260.7,25.1 		"/>
		<polygon class="st29" points="262.9,23.6 262.7,23.9 263,23.8 262.9,23.9 263,23.8 239.8,71.6 220.3,111.9 262.9,200.2 
			132.3,111.7 262.4,24.1 		"/>
		<polygon class="st30" points="264.6,22.6 264.5,22.9 264.7,22.8 264.7,22.9 264.8,22.8 241.3,71.1 221.6,111.9 264.6,201.2 
			132.6,111.7 264.2,23.1 		"/>
		<polygon class="st31" points="266.4,21.6 266.3,21.9 266.5,21.8 266.5,21.9 266.5,21.8 242.8,70.7 222.9,111.9 266.4,202.2 
			132.9,111.7 266,22.1 		"/>
		<polygon class="st32" points="268.2,20.6 268.1,20.9 268.3,20.8 268.3,20.9 268.3,20.8 244.3,70.2 224.2,111.9 268.2,203.2 
			133.1,111.7 267.8,21.1 		"/>
		<polygon class="st33" points="270,19.6 269.8,19.9 270.1,19.7 270,19.9 270.1,19.8 245.8,69.7 225.5,111.9 270,204.2 133.4,111.7 
			269.6,20.1 		"/>
		<polygon class="st34" points="271.8,18.6 271.6,18.9 271.9,18.7 271.8,18.9 271.9,18.8 247.4,69.3 226.8,111.9 271.8,205.2 
			133.7,111.7 271.3,19.1 		"/>
		<polygon class="st35" points="273.6,17.6 273.4,17.9 273.7,17.7 273.6,17.9 273.7,17.8 248.9,68.8 228.1,111.9 273.6,206.2 
			134,111.7 273.1,18.1 		"/>
		<polygon class="st36" points="275.3,16.6 275.2,16.9 275.4,16.7 275.4,16.9 275.5,16.8 250.4,68.4 229.4,111.9 275.3,207.3 
			134.3,111.7 274.9,17.1 		"/>
		<polygon class="st37" points="277.1,15.6 277,15.9 277.2,15.7 277.2,15.9 277.3,15.8 251.9,67.9 230.7,111.9 277.1,208.3 
			134.6,111.7 276.7,16.1 		"/>
		<polygon class="st38" points="278.9,14.6 278.8,14.9 279,14.7 279,14.8 279,14.7 253.4,67.4 232,111.9 278.9,209.3 134.9,111.7 
			278.5,15.1 		"/>
		<polygon class="st39" points="280.7,13.6 280.5,13.9 280.8,13.7 280.7,13.8 280.8,13.7 255,67 233.3,111.9 280.7,210.3 
			135.2,111.7 280.2,14.1 		"/>
		<polygon class="st40" points="282.5,12.5 282.3,12.9 282.6,12.7 282.5,12.8 282.6,12.7 256.5,66.5 234.6,111.9 282.5,211.3 
			135.5,111.7 282,13.1 		"/>
		<polygon class="st41" points="284.3,11.5 284.1,11.9 284.4,11.7 284.3,11.8 284.4,11.7 258,66.1 235.9,111.9 284.3,212.3 
			135.8,111.7 283.8,12.1 		"/>
		<polygon class="st42" points="286,10.5 285.9,10.9 286.2,10.7 286.1,10.8 286.2,10.7 259.5,65.6 237.2,111.9 286,213.3 
			136.1,111.7 285.6,11.1 		"/>
		<polygon class="st43" points="287.8,9.5 287.7,9.9 287.9,9.7 287.9,9.8 288,9.7 261,65.1 238.5,111.9 287.8,214.3 136.4,111.7 
			287.4,10.1 		"/>
		<polygon class="st44" points="289.6,8.5 289.4,8.9 289.7,8.7 289.7,8.8 289.8,8.7 262.6,64.7 239.8,111.9 289.6,215.3 
			136.6,111.7 289.1,9.1 		"/>
		<polygon class="st45" points="291.4,7.5 291.2,7.9 291.5,7.7 291.4,7.8 291.5,7.7 264.1,64.2 241.1,111.9 291.4,216.3 
			136.9,111.7 290.9,8.1 		"/>
		<polygon class="st46" points="293.2,6.5 293,6.8 293.3,6.7 293.2,6.8 293.3,6.7 265.6,63.8 242.4,111.9 293.2,217.3 137.2,111.7 
			292.7,7.1 		"/>
		<polygon class="st47" points="295,5.5 294.8,5.8 295.1,5.6 295,5.8 295.1,5.7 267.1,63.3 243.7,111.9 295,218.3 137.5,111.7 
			294.5,6.1 		"/>
		<polygon class="st48" points="296.7,4.5 296.6,4.8 296.9,4.6 296.8,4.8 296.9,4.7 268.6,62.8 245,111.9 296.7,219.4 137.8,111.7 
			296.3,5.1 		"/>
		<polygon class="st49" points="298.5,3.5 298.4,3.8 298.7,3.6 298.6,3.8 298.7,3.7 270.2,62.4 246.3,111.9 298.5,220.4 
			138.1,111.7 298,4 		"/>
		<polygon class="st50" points="300.3,2.5 300.1,2.8 300.4,2.6 300.4,2.8 300.5,2.7 271.7,61.9 247.6,111.9 300.3,221.4 
			138.4,111.7 299.8,3 		"/>
		<polygon class="st51" points="302.1,1.5 301.9,1.8 302.2,1.6 302.2,1.8 302.3,1.7 273.2,61.4 248.9,111.9 302.1,222.4 
			138.7,111.7 301.6,2 		"/>
		<polygon points="303.9,0.4 303.7,0.8 304,0.6 303.9,0.8 304,0.7 274.7,61 250.2,111.9 303.9,223.4 139,111.7 303.4,1 		"/>
	</g>
	<g>
		<g>
			<g>
				<polygon points="139,111.7 303.9,223.4 250,111.5 304,0.6 				"/>
				<polygon class="st0" points="303.9,223.4 250.1,111.7 304,0.6 208.1,111.7 				"/>
				<polygon class="st1" points="139,111.7 208.1,111.7 304,0.6 				"/>
			</g>
			
				<radialGradient id="SVGID_9_" cx="-921.9358" cy="53.0763" r="86.9917" gradientTransform="matrix(0 0.6388 0.401 0 198.4108 682.7085)" gradientUnits="userSpaceOnUse">
				<stop  offset="0" style="stop-color:#A7A9AC"/>
				<stop  offset="1" style="stop-color:#808285"/>
			</radialGradient>
			<polygon class="st52" points="250.1,111.7 208.1,111.7 303.9,223.4 			"/>
			
				<radialGradient id="SVGID_10_" cx="-27.4609" cy="53.0763" r="86.9917" gradientTransform="matrix(0 -0.6388 0.401 0 198.4108 112.5152)" gradientUnits="userSpaceOnUse">
				<stop  offset="0" style="stop-color:#A7A9AC"/>
				<stop  offset="1" style="stop-color:#808285"/>
			</radialGradient>
			<polygon class="st53" points="250.1,112.1 208.1,112.1 303.9,0.4 			"/>
		</g>
		<g>
			<g>
				<polygon points="139,111.7 303.9,223.4 250,111.5 304,0.6 				"/>
				<polygon class="st0" points="303.9,223.4 250.1,111.7 304,0.6 208.1,111.7 				"/>
				<polygon class="st1" points="139,111.7 208.1,111.7 304,0.6 				"/>
			</g>
			
				<radialGradient id="SVGID_11_" cx="-921.9358" cy="53.0763" r="86.9917" gradientTransform="matrix(0 0.6388 0.401 0 198.4108 682.7085)" gradientUnits="userSpaceOnUse">
				<stop  offset="0" style="stop-color:#A7A9AC"/>
				<stop  offset="1" style="stop-color:#808285"/>
			</radialGradient>
			<polygon class="st54" points="250.1,111.7 208.1,111.7 303.9,223.4 			"/>
			
				<radialGradient id="SVGID_12_" cx="-26.5449" cy="53.1743" r="86.797" gradientTransform="matrix(0 -0.6388 0.401 0 198.4108 112.5152)" gradientUnits="userSpaceOnUse">
				<stop  offset="0" style="stop-color:#A7A9AC"/>
				<stop  offset="1" style="stop-color:#808285"/>
			</radialGradient>
			<polygon class="st55" points="250.1,111.6 208.1,111.7 304,0.7 			"/>
		</g>
		<g>
			<g>
				<polygon points="139,111.7 303.9,223.4 250,111.5 304,0.6 				"/>
				<polygon class="st0" points="303.9,223.4 250.1,111.7 304,0.6 208.1,111.7 				"/>
				
					<radialGradient id="SVGID_13_" cx="-162.7886" cy="229.7308" r="209.8016" gradientTransform="matrix(0 -0.6388 -0.7162 0 295.3118 26.6011)" gradientUnits="userSpaceOnUse">
					<stop  offset="0" style="stop-color:#FFFFFF"/>
					<stop  offset="1" style="stop-color:#D8D9DA"/>
				</radialGradient>
				<polygon class="st56" points="139,111.7 208.1,111.7 304,0.6 				"/>
			</g>
			
				<radialGradient id="SVGID_14_" cx="-921.9358" cy="53.0763" r="86.9917" gradientTransform="matrix(0 0.6388 0.401 0 198.4108 682.7085)" gradientUnits="userSpaceOnUse">
				<stop  offset="0" style="stop-color:#A7A9AC"/>
				<stop  offset="1" style="stop-color:#808285"/>
			</radialGradient>
			<polygon class="st57" points="250.1,111.7 208.1,111.7 303.9,223.4 			"/>
			
				<radialGradient id="SVGID_15_" cx="-26.5449" cy="53.1743" r="86.797" gradientTransform="matrix(0 -0.6388 0.401 0 198.4108 112.5152)" gradientUnits="userSpaceOnUse">
				<stop  offset="0" style="stop-color:#A7A9AC"/>
				<stop  offset="1" style="stop-color:#808285"/>
			</radialGradient>
			<polygon class="st58" points="250.1,111.6 208.1,111.7 304,0.7 			"/>
		</g>
	</g>
	
		<linearGradient id="SVGID_16_" gradientUnits="userSpaceOnUse" x1="-75.8698" y1="104.1534" x2="-18.5306" y2="241.4652" gradientTransform="matrix(0 -1 -1 0 378.5069 99.4698)">
		<stop  offset="0" style="stop-color:#000000"/>
		<stop  offset="0.1144" style="stop-color:#121212"/>
		<stop  offset="0.2386" style="stop-color:#333233"/>
		<stop  offset="0.3676" style="stop-color:#4E4E50"/>
		<stop  offset="0.4997" style="stop-color:#68696B"/>
		<stop  offset="0.6345" style="stop-color:#85878A"/>
		<stop  offset="0.7712" style="stop-color:#AAACAF"/>
		<stop  offset="0.9071" style="stop-color:#D8D9DB"/>
		<stop  offset="1" style="stop-color:#FFFFFF"/>
	</linearGradient>
	<polygon class="st59" points="208.1,111.7 303.5,223.5 139,111.7 	"/>
</g>
<linearGradient id="SVGID_17_" gradientUnits="userSpaceOnUse" x1="-114.6901" y1="112.8945" x2="-60.7057" y2="161.3702" gradientTransform="matrix(0 -1 -1 0 378.5069 99.4698)">
	<stop  offset="0" style="stop-color:#000000"/>
	<stop  offset="0.1144" style="stop-color:#121212"/>
	<stop  offset="0.2386" style="stop-color:#333233"/>
	<stop  offset="0.3676" style="stop-color:#4E4E50"/>
	<stop  offset="0.4997" style="stop-color:#68696B"/>
	<stop  offset="0.6345" style="stop-color:#85878A"/>
	<stop  offset="0.7712" style="stop-color:#AAACAF"/>
	<stop  offset="0.9071" style="stop-color:#D8D9DB"/>
	<stop  offset="1" style="stop-color:#FFFFFF"/>
</linearGradient>
<polygon class="st60" points="139,111.5 139,111.9 208,111.9 303.3,223.7 303.7,223.4 208.2,111.5 208.1,111.5 "/>
<linearGradient id="SVGID_18_" gradientUnits="userSpaceOnUse" x1="-124.0586" y1="74.9795" x2="-124.0586" y2="74.9795" gradientTransform="matrix(0 -1 -1 0 378.5069 99.4698)">
	<stop  offset="0" style="stop-color:#000000"/>
	<stop  offset="0.1144" style="stop-color:#121212"/>
	<stop  offset="0.2386" style="stop-color:#333233"/>
	<stop  offset="0.3676" style="stop-color:#4E4E50"/>
	<stop  offset="0.4997" style="stop-color:#68696B"/>
	<stop  offset="0.6345" style="stop-color:#85878A"/>
	<stop  offset="0.7712" style="stop-color:#AAACAF"/>
	<stop  offset="0.9071" style="stop-color:#D8D9DB"/>
	<stop  offset="1" style="stop-color:#FFFFFF"/>
</linearGradient>
<path class="st61" d="M303.5,223.5"/>
<g>
	
		<linearGradient id="SVGID_19_" gradientUnits="userSpaceOnUse" x1="-68.0883" y1="114.7883" x2="-68.0883" y2="158.4668" gradientTransform="matrix(0 -1 -1 0 378.5069 99.4698)">
		<stop  offset="0" style="stop-color:#000000"/>
		<stop  offset="0.1144" style="stop-color:#121212"/>
		<stop  offset="0.2386" style="stop-color:#333233"/>
		<stop  offset="0.3676" style="stop-color:#4E4E50"/>
		<stop  offset="0.4997" style="stop-color:#68696B"/>
		<stop  offset="0.6345" style="stop-color:#85878A"/>
		<stop  offset="0.7712" style="stop-color:#AAACAF"/>
		<stop  offset="0.9071" style="stop-color:#D8D9DB"/>
		<stop  offset="1" style="stop-color:#FFFFFF"/>
	</linearGradient>
	<polygon class="st62" points="303.9,223.4 250.7,111.7 249.5,111.7 	"/>
	
		<linearGradient id="SVGID_20_" gradientUnits="userSpaceOnUse" x1="43.6046" y1="114.7897" x2="43.6046" y2="158.4696" gradientTransform="matrix(0 -1 -1 0 378.5069 99.4698)">
		<stop  offset="0" style="stop-color:#000000"/>
		<stop  offset="0.1144" style="stop-color:#121212"/>
		<stop  offset="0.2386" style="stop-color:#333233"/>
		<stop  offset="0.3676" style="stop-color:#4E4E50"/>
		<stop  offset="0.4997" style="stop-color:#68696B"/>
		<stop  offset="0.6345" style="stop-color:#85878A"/>
		<stop  offset="0.7712" style="stop-color:#AAACAF"/>
		<stop  offset="0.9071" style="stop-color:#D8D9DB"/>
		<stop  offset="1" style="stop-color:#FFFFFF"/>
	</linearGradient>
	<polygon class="st63" points="303.9,0 249.5,111.7 250.7,111.7 	"/>
</g>
</svg>
